<svg width="231" height="139" viewBox="0 0 231 139" xmlns="http://www.w3.org/2000/svg"><title>Blog Items</title><defs><linearGradient x1="100%" y1="50%" x2="0%" y2="50%" id="a"><stop stop-color="#55647F" offset="0%"/><stop stop-color="#E9E6C9" offset="2.269%"/><stop stop-color="#E9E6C9" offset="100%"/></linearGradient><linearGradient x1="0%" y1="50%" y2="50%" id="b"><stop stop-color="#55647F" offset="0%"/><stop stop-color="#E9E6C9" offset="2.501%"/><stop stop-color="#E9E6C9" offset="100%"/></linearGradient></defs><g fill="none" fill-rule="evenodd"><g fill="#55647F"><rect width="101.395" height="139" rx="10"/><rect x="101.605" width="101.395" height="139" rx="10"/></g><g transform="translate(5.19 3.585)"><rect fill="url(#a)" width="96.21" height="132.03" rx="10"/><g stroke="#55647F" stroke-linecap="square"><path d="M3.892 16.827h88.626M3.892 23.598h88.626M3.892 30.37h88.626M3.892 37.14h88.626M3.892 43.91h88.626M3.892 50.68h88.626M3.892 57.452h88.626M3.892 64.223h88.626M3.892 70.994h88.626M3.892 77.764h88.626M3.892 84.535h88.626M3.892 91.306h88.626M3.892 98.077h88.626M3.892 104.847h88.626M3.892 111.618h88.626M3.892 118.39h88.626M3.892 127.15h88.626"/></g><rect fill="url(#b)" x="96.41" width="96.21" height="132.03" rx="10"/><g stroke="#55647F" stroke-linecap="square"><path d="M100.302 16.827h88.626M100.302 23.598h88.626M100.302 30.37h88.626M100.302 37.14h88.626M100.302 43.91h88.626M100.302 50.68h88.626M100.302 57.452h88.626M100.302 64.223h88.626M100.302 70.994h88.626M100.302 77.764h88.626M100.302 84.535h88.626M100.302 91.306h88.626M100.302 98.077h88.626M100.302 104.847h88.626M100.302 111.618h88.626M100.302 118.39h88.626M100.302 127.15h88.626"/></g></g><g><path fill="#55647F" d="M230.282 16.797v83.792h-7.855V16.796z"/><path fill="#C95F45" d="M230.282 101.195v31.7h-7.855v-31.7z"/><path fill="#C95F45" d="M226.355 130.27v2.624h-6.11v-2.625z"/><path d="M221.566 105.84v27.054h-2.4c-.896-1.6 1-27.055 1-27.055h1.4z" fill="#C95F45"/><path fill="#E1C7AA" d="M229.41 132.894v.404h-6.11v-.404zM230.282 100.59v.605h-7.855v-.606z"/><g><path fill="#C95F45" d="M229.846 14.576v2.22h-6.982v-2.22z"/><path d="M224.554 11.346h3.57l1.612 3.33h-6.763l1.58-3.33z" fill="#55647F"/><path d="M226.464 6.803c.327 0 .654 4.24.654 4.24h-1.31s.328-4.24.656-4.24z" fill="#302E29"/><path fill="#E9E6C9" d="M227.446 10.942v.404h-2.182v-.404z"/></g></g></g></svg>