<?xml version="1.0" encoding="UTF-8" standalone="no"?>
<svg width="632px" height="408px" viewBox="0 0 632 408" version="1.1" xmlns="http://www.w3.org/2000/svg" xmlns:xlink="http://www.w3.org/1999/xlink">
    <!-- Generator: Sketch 3.6.1 (26313) - http://www.bohemiancoding.com/sketch -->
    <title>Envelope Front</title>
    <desc>Created with Sketch.</desc>
    <defs>
        <rect id="path-1" x="0" y="0" width="632" height="407" rx="12"></rect>
    </defs>
    <g id="Sketches" stroke="none" stroke-width="1" fill="none" fill-rule="evenodd">
        <g id="Envelope-Front" transform="translate(0.000000, 0.784690)">
            <g id="Main">
                <mask id="mask-2" fill="white">
                    <use xlink:href="#path-1"></use>
                </mask>
                <use id="Mask" fill="#E9E6C9" xlink:href="#path-1"></use>
            </g>
            <g id="Stamp" transform="translate(430.527514, 33.616519)">
                <g id="Franks" opacity="0.523787313" transform="translate(0.000000, 12.005900)" stroke="#C95F45" stroke-width="4.8" stroke-linecap="round" stroke-linejoin="round">
                    <path d="M0.42375182,7.93453925 C0.42375182,7.93453925 40.3784373,16.920833 62.801828,16.920833 C85.2252188,16.920833 107.52362,0.873562515 130.714485,0.873562515 C153.90535,0.873562515 177.238749,9.40805316 177.238749,9.40805316" id="Line"></path>
                    <path d="M0.42375182,24.3115589 C0.42375182,24.3115589 40.3784373,33.2978527 62.801828,33.2978527 C85.2252188,33.2978527 107.52362,17.2505822 130.714485,17.2505822 C153.90535,17.2505822 177.238749,25.7850729 177.238749,25.7850729" id="Line-Copy-17"></path>
                    <path d="M0.42375182,41.5621412 C0.42375182,41.5621412 40.3784373,50.5484349 62.801828,50.5484349 C85.2252188,50.5484349 107.52362,34.5011644 130.714485,34.5011644 C153.90535,34.5011644 177.238749,43.0356551 177.238749,43.0356551" id="Line-Copy-18"></path>
                    <path d="M0.42375182,58.8127234 C0.42375182,58.8127234 40.3784373,67.7990172 62.801828,67.7990172 C85.2252188,67.7990172 107.52362,51.7517466 130.714485,51.7517466 C153.90535,51.7517466 177.238749,60.2862373 177.238749,60.2862373" id="Line-Copy-19"></path>
                    <path d="M0.42375182,76.0633056 C0.42375182,76.0633056 40.3784373,85.0495994 62.801828,85.0495994 C85.2252188,85.0495994 107.52362,69.0023288 130.714485,69.0023288 C153.90535,69.0023288 177.238749,77.5368195 177.238749,77.5368195" id="Line-Copy-20"></path>
                    <path d="M0.42375182,91.5858522 C0.42375182,91.5858522 40.3784373,100.572146 62.801828,100.572146 C85.2252188,100.572146 107.52362,84.5248755 130.714485,84.5248755 C153.90535,84.5248755 177.238749,93.0593662 177.238749,93.0593662" id="Line-Copy-21"></path>
                </g>
                <path d="M172.630038,5.49400037 C173.0192,7.67908663 174.926681,9.33792199 177.221168,9.33792199 C177.540601,9.33792199 177.852532,9.30577129 178.153911,9.24452586 L178.153911,13.1664869 C177.852532,13.1052415 177.540601,13.0730908 177.221168,13.0730908 C174.645469,13.0730908 172.557453,15.1634558 172.557453,17.7420518 C172.557453,20.3206477 174.645469,22.4110128 177.221168,22.4110128 C177.540601,22.4110128 177.852532,22.3788621 178.153911,22.3176166 L178.153911,26.2395777 C177.852532,26.1783323 177.540601,26.1461816 177.221168,26.1461816 C174.645469,26.1461816 172.557453,28.2365466 172.557453,30.8151426 C172.557453,33.3937385 174.645469,35.4841036 177.221168,35.4841036 C177.540601,35.4841036 177.852532,35.4519529 178.153911,35.3907074 L178.153911,39.3126685 C177.852532,39.2514231 177.540601,39.2192724 177.221168,39.2192724 C174.645469,39.2192724 172.557453,41.3096374 172.557453,43.8882334 C172.557453,46.4668293 174.645469,48.5571944 177.221168,48.5571944 C177.540601,48.5571944 177.852532,48.5250437 178.153911,48.4637982 L178.153911,52.3857593 C177.852532,52.3245139 177.540601,52.2923632 177.221168,52.2923632 C174.645469,52.2923632 172.557453,54.3827282 172.557453,56.9613242 C172.557453,59.5399201 174.645469,61.6302852 177.221168,61.6302852 C177.540601,61.6302852 177.852532,61.5981344 178.153911,61.536889 L178.153911,65.4588501 C177.852532,65.3976047 177.540601,65.3654539 177.221168,65.3654539 C174.645469,65.3654539 172.557453,67.455819 172.557453,70.0344149 C172.557453,72.6130109 174.645469,74.7033759 177.221168,74.7033759 C177.540601,74.7033759 177.852532,74.6712252 178.153911,74.6099798 L178.153911,78.5319409 C177.852532,78.4706954 177.540601,78.4385447 177.221168,78.4385447 C174.645469,78.4385447 172.557453,80.5289098 172.557453,83.1075057 C172.557453,85.6861017 174.645469,87.7764667 177.221168,87.7764667 C177.540601,87.7764667 177.852532,87.744316 178.153911,87.6830706 L178.153911,91.6050317 C177.852532,91.5437862 177.540601,91.5116355 177.221168,91.5116355 C174.926681,91.5116355 173.0192,93.1704709 172.630038,95.3555572 C172.306253,95.2843403 171.96986,95.2468043 171.62471,95.2468043 C169.049011,95.2468043 166.960995,97.3371694 166.960995,99.9157653 C166.960995,100.235557 166.99311,100.54784 167.054286,100.849558 L163.136732,100.849558 C163.197909,100.54784 163.230023,100.235557 163.230023,99.9157653 C163.230023,97.3371694 161.142007,95.2468043 158.566308,95.2468043 C155.99061,95.2468043 153.902593,97.3371694 153.902593,99.9157653 C153.902593,100.235557 153.934708,100.54784 153.995884,100.849558 L150.07833,100.849558 C150.139507,100.54784 150.171621,100.235557 150.171621,99.9157653 C150.171621,97.3371694 148.083605,95.2468043 145.507906,95.2468043 C142.932208,95.2468043 140.844191,97.3371694 140.844191,99.9157653 C140.844191,100.235557 140.876306,100.54784 140.937483,100.849558 L137.019928,100.849558 C137.081105,100.54784 137.113219,100.235557 137.113219,99.9157653 C137.113219,97.3371694 135.025203,95.2468043 132.449505,95.2468043 C129.873806,95.2468043 127.78579,97.3371694 127.78579,99.9157653 C127.78579,100.235557 127.817904,100.54784 127.879081,100.849558 L125.827012,100.849558 C125.888189,100.54784 125.920304,100.235557 125.920304,99.9157653 C125.920304,97.3371694 123.832287,95.2468043 121.256589,95.2468043 C118.68089,95.2468043 116.592874,97.3371694 116.592874,99.9157653 C116.592874,100.235557 116.624988,100.54784 116.686165,100.849558 L114.634097,100.849558 C114.695273,100.54784 114.727388,100.235557 114.727388,99.9157653 C114.727388,97.3371694 112.639371,95.2468043 110.063673,95.2468043 C107.487974,95.2468043 105.399958,97.3371694 105.399958,99.9157653 C105.399958,100.235557 105.432072,100.54784 105.493249,100.849558 L103.441181,100.849558 C103.502357,100.54784 103.534472,100.235557 103.534472,99.9157653 C103.534472,97.3371694 101.446456,95.2468043 98.8707569,95.2468043 C98.5256069,95.2468043 98.1892141,95.2843403 97.8654292,95.3555572 C97.4762668,93.1704709 95.5687861,91.5116355 93.274299,91.5116355 C92.9548664,91.5116355 92.6429345,91.5437862 92.341556,91.6050317 L92.341556,87.6830706 C92.6429345,87.744316 92.9548664,87.7764667 93.274299,87.7764667 C95.8499976,87.7764667 97.9380139,85.6861017 97.9380139,83.1075057 C97.9380139,80.5289098 95.8499976,78.4385447 93.274299,78.4385447 C92.9548664,78.4385447 92.6429345,78.4706954 92.341556,78.5319409 L92.341556,74.6099798 C92.6429345,74.6712252 92.9548664,74.7033759 93.274299,74.7033759 C95.8499976,74.7033759 97.9380139,72.6130109 97.9380139,70.0344149 C97.9380139,67.455819 95.8499976,65.3654539 93.274299,65.3654539 C92.9548664,65.3654539 92.6429345,65.3976047 92.341556,65.4588501 L92.341556,61.536889 C92.6429345,61.5981344 92.9548664,61.6302852 93.274299,61.6302852 C95.8499976,61.6302852 97.9380139,59.5399201 97.9380139,56.9613242 C97.9380139,54.3827282 95.8499976,52.2923632 93.274299,52.2923632 C92.9548664,52.2923632 92.6429345,52.3245139 92.341556,52.3857593 L92.341556,48.4637982 C92.6429345,48.5250437 92.9548664,48.5571944 93.274299,48.5571944 C95.8499976,48.5571944 97.9380139,46.4668293 97.9380139,43.8882334 C97.9380139,41.3096374 95.8499976,39.2192724 93.274299,39.2192724 C92.9548664,39.2192724 92.6429345,39.2514231 92.341556,39.3126685 L92.341556,35.3907074 C92.6429345,35.4519529 92.9548664,35.4841036 93.274299,35.4841036 C95.8499976,35.4841036 97.9380139,33.3937385 97.9380139,30.8151426 C97.9380139,28.2365466 95.8499976,26.1461816 93.274299,26.1461816 C92.9548664,26.1461816 92.6429345,26.1783323 92.341556,26.2395777 L92.341556,22.3176166 C92.6429345,22.3788621 92.9548664,22.4110128 93.274299,22.4110128 C95.8499976,22.4110128 97.9380139,20.3206477 97.9380139,17.7420518 C97.9380139,15.1634558 95.8499976,13.0730908 93.274299,13.0730908 C92.9548664,13.0730908 92.6429345,13.1052415 92.341556,13.1664869 L92.341556,9.24452586 C92.6429345,9.30577129 92.9548664,9.33792199 93.274299,9.33792199 C95.5687861,9.33792199 97.4762668,7.67908663 97.8654292,5.49400037 C98.1892141,5.56521722 98.5256069,5.6027532 98.8707569,5.6027532 C101.446456,5.6027532 103.534472,3.51238815 103.534472,0.933792199 C103.534472,0.61400027 103.502357,0.301717542 103.441181,-1.66533454e-15 L105.493249,0 C105.432072,0.301717542 105.399958,0.61400027 105.399958,0.933792199 C105.399958,3.51238815 107.487974,5.6027532 110.063673,5.6027532 C112.639371,5.6027532 114.727388,3.51238815 114.727388,0.933792199 C114.727388,0.61400027 114.695273,0.301717542 114.634097,-1.55431223e-15 L118.551651,0 C118.490474,0.301717542 118.45836,0.61400027 118.45836,0.933792199 C118.45836,3.51238815 120.546376,5.6027532 123.122075,5.6027532 C125.697773,5.6027532 127.78579,3.51238815 127.78579,0.933792199 C127.78579,0.61400027 127.753675,0.301717542 127.692498,5.55111512e-17 L129.744567,0 C129.68339,0.301717542 129.651276,0.61400027 129.651276,0.933792199 C129.651276,3.51238815 131.739292,5.6027532 134.314991,5.6027532 C136.890689,5.6027532 138.978705,3.51238815 138.978705,0.933792199 C138.978705,0.61400027 138.946591,0.301717542 138.885414,5.55111512e-17 L140.937483,0 C140.876306,0.301717542 140.844191,0.61400027 140.844191,0.933792199 C140.844191,3.51238815 142.932208,5.6027532 145.507906,5.6027532 C148.083605,5.6027532 150.171621,3.51238815 150.171621,0.933792199 C150.171621,0.61400027 150.139507,0.301717542 150.07833,5.55111512e-17 L153.995884,0 C153.934708,0.301717542 153.902593,0.61400027 153.902593,0.933792199 C153.902593,3.51238815 155.99061,5.6027532 158.566308,5.6027532 C161.142007,5.6027532 163.230023,3.51238815 163.230023,0.933792199 C163.230023,0.61400027 163.197909,0.301717542 163.136732,5.55111512e-17 L167.054286,0 C166.99311,0.301717542 166.960995,0.61400027 166.960995,0.933792199 C166.960995,3.51238815 169.049011,5.6027532 171.62471,5.6027532 C171.96986,5.6027532 172.306253,5.56521722 172.630038,5.49400037 Z M176.21584,0.108752826 C176.539625,0.0375359801 176.876018,0 177.221168,0 C177.540601,0 177.852532,0.0321507076 178.153911,0.0933961361 L178.153911,0 L176.195134,0 C176.202454,0.0361014266 176.209358,0.0723541135 176.21584,0.108752826 Z M94.3003332,0 L92.341556,0 L92.341556,0.0933961361 C92.6429345,0.0321507076 92.9548664,0 93.274299,0 C93.619449,0 93.9558418,0.0375359801 94.2796267,0.108752826 C94.2861093,0.0723541135 94.2930132,0.0361014266 94.3003332,-2.1649349e-15 Z M176.21584,100.740805 C176.539625,100.812022 176.876018,100.849558 177.221168,100.849558 C177.540601,100.849558 177.852532,100.817407 178.153911,100.756161 L178.153911,100.849558 L176.195134,100.849558 C176.202454,100.813456 176.209358,100.777203 176.21584,100.740805 Z M94.3003332,100.849558 L92.341556,100.849558 L92.341556,100.756161 C92.6429345,100.817407 92.9548664,100.849558 93.274299,100.849558 C93.619449,100.849558 93.9558418,100.812022 94.2796267,100.740805 C94.2861093,100.777203 94.2930132,100.813456 94.3003332,100.849558 Z" id="Ruffle" fill="#55647F"></path>
                <rect id="Rectangle-28" fill="#C95F45" x="105.533207" y="12.0058997" width="59.9620493" height="75.6371681"></rect>
            </g>
            <g id="Address" transform="translate(185.882353, 165.681416)" fill="#55647F">
                <rect id="Rectangle-29" x="0" y="0" width="260.235294" height="28.8141593"></rect>
                <rect id="Rectangle-29-Copy" x="0" y="37.2182891" width="242.246679" height="28.8141593"></rect>
                <rect id="Rectangle-29-Copy-2" x="0" y="74.4365782" width="260.235294" height="28.8141593"></rect>
                <rect id="Rectangle-29-Copy-3" x="0" y="112.855457" width="179.886148" height="28.8141593"></rect>
            </g>
        </g>
    </g>
</svg>