<svg width="442" height="407" viewBox="0 0 442 407" xmlns="http://www.w3.org/2000/svg"><title>Header</title><g fill="none" fill-rule="evenodd"><path d="M341.268 48.295c-28.103 8.058-83.422 27.266-83.422 27.266l-6.464-22.542s56.343-14.725 84.687-22.852c30.582-8.77 87.594-31.85 91.558-29.707 3.964 2.143 9.788 22.677 7.277 25.377-2.512 2.7-62.813 13.62-93.637 22.458z" fill="#C95F45"/><path d="M249.813 122.873c8.313-2.196 11.346-3.38 11.706-5.073.36-1.692-3.377-10.48-4.346-12.588-.97-2.108-6.57-.522-8.636-8.89-2.065-8.366 3.437-14.587 8.136-16.8 4.7-2.216 7.973-2.837 8.287-4.31.315-1.472-3.855-14.21-3.855-14.21s-3.24-12.085-5.48-12.403c-2.24-.318-21.277 5.88-23.3 2.38-2.022-3.5-1.233-9.23.862-13.698 2.095-4.47 15.176-25.67 15.577-27.55.4-1.883 2.224-4.6-.283-4.954-2.507-.356-24.393 23.63-27.775 31.494-3.382 7.864-9.55 20.636-5.22 38.307 4.333 17.67 4.61 17.27 5.634 18.485 1.023 1.215 10.307 2.868 12.342 8.784 2.035 5.915-2.524 11.84-2.524 11.84s3.23 11.324 4.81 12.1c1.578.777 5.752-.72 14.065-2.917z" fill="#E9E6C9"/><g fill="#C95F45"><path d="M199.04 129.162l-150.828-25.09 5.876-23.567M289.137 127.534L437.78 91.696l3.798 23.988M305.49 135.378l98.44 14.615-3.557 15.403M186.46 140.88l-96.325 25.012-2.745-15.568M190.107 105.177l-90.6-41.183 7.665-13.826M302.56 111.47l84.805-52.082 7.177 14.086"/></g><path d="M1.464 392.15l46.92-31.79s201.3.09 301.987-.002c.526 0 .875-.374 2.046 0 1.17.374.39-.138 1.222.45 5.936 4.195 30.573 22.04 43.507 31.342.92.66 1.882 1.374 1.488 2.01-.394.638-2.682 1.254-3.506 1.254-118.32 0-345.355-.042-390.425-.25-5.21-.025-4.126-.71-4.495-1.24-.37-.534 1.257-1.774 1.257-1.774z" fill="#55647F"/><path d="M394.108 395.356c-3.56 0-387.85-.265-390.018-.183-2.168.083-3.968-.82-3.968-.82l.28 10.69s.545 1.404 1.887 1.404 6.427.067 6.427.067l385.96-.084s1.51.798 2.684-.294c1.175-1.093 1.142-2.488 1.142-2.488v-9.644s-.712 1.352-4.394 1.352z" fill="#55647F"/><path d="M147.834 379.378l103.182.055 4.414 11.817-113.238-.204 5.642-11.668z" fill="#C95F45"/><g transform="translate(51.263 165)"><rect fill="#55647F" width="297.128" height="195.361" rx="20"/><path stroke="#979797" fill="#EDEACD" d="M12.734 14.024H283.74V181.01H12.735z"/></g><path d="M78.947 361.793l-17.702 14.79 277.69-.01-16.99-15.35-242.998.57zM132.987 252.98c1.716 0 3.12-1.364 3.12-3.08s-1.404-3.12-3.12-3.12c-1.716 0-3.08 1.404-3.08 3.12 0 1.716 1.364 3.08 3.08 3.08zM130.1 276.89c0 1.91-.7 3.237-2.456 3.237-.78 0-1.52-.35-2.028-.624-.312-.155-.78 0-.897.274l-1.64 3.237c-.155.274-.077.703.157.898.663.624 2.73 1.482 4.758 1.482 4.524 0 7.917-3.042 7.917-8.502V258.44c0-.428-.35-.74-.74-.74h-4.33c-.39 0-.74.312-.74.74v18.448zm8.97-8.346c0 3.08 2.302 5.148 5.383 5.148 2.457 0 3.822-1.13 4.72-1.95l.545 1.053c.195.43.468.507.702.507h1.716c.39 0 .74-.35.74-.74v-8.62c0-4.602-1.754-6.63-6.59-6.63-2.106 0-4.836.468-5.187.585-.352.117-.703.39-.586 1.053l.35 2.457c.08.585.352 1.014.937.82 1.015-.313 2.848-.586 3.9-.586 1.873 0 2.107.78 2.107 2.3 0 0-1.248-.624-3.003-.624-3.55 0-5.733 2.223-5.733 5.226zm5.07-.39c0-.897.742-1.638 1.678-1.638.936 0 1.677.74 1.716 1.638 0 .936-.78 1.716-1.716 1.716-.936 0-1.677-.78-1.677-1.716zm11.506-2.652c0 4.68 3.94 8.19 8.385 8.19 2.81 0 4.837-1.092 6.28-3.276.273-.39.078-.78-.273-1.092l-2.34-2.028c-.234-.195-.585-.117-.858.156-.625.624-1.288 1.21-2.653 1.21-1.716 0-3.042-1.405-3.042-3.16 0-1.716 1.404-3.16 3.12-3.16.897 0 1.716.43 2.262 1.015.195.195.663.273.858.078l2.34-2.223c.35-.312.468-.74.195-1.092-1.482-1.794-3.393-2.808-5.85-2.808-4.446 0-8.424 3.588-8.424 8.19zm17.59 7.06c0 .39.35.74.74.74h4.33c.39 0 .74-.35.74-.74V266.2l5.304 6.786c.117.156.43.312.585.312h5.265c.663 0 1.014-.663.585-1.17l-6.24-7.254 5.148-5.967c.43-.547.078-1.21-.585-1.21h-4.368c-.468 0-.74.234-.975.468l-4.72 5.46V246.74c0-.39-.35-.74-.74-.74h-4.33c-.39 0-.74.35-.74.74v25.82zm23.4.662c.038.273.428.468.662.468h.195c.195 0 .507-.156.624-.312l4.953-7.8h.04l5.03 7.8c.078.156.43.312.624.312h.156c.273 0 .624-.195.702-.468l5.187-14.547c.194-.507-.157-.975-.703-.975h-3.627c-.43 0-.624.117-.78.468l-1.99 5.343h-.038l-3.744-5.888c-.078-.156-.312-.312-.585-.312h-.39c-.35 0-.546.195-.624.312l-3.706 5.89h-.04l-2.027-5.344c-.078-.273-.468-.468-.702-.468h-3.705c-.546 0-.897.468-.702.975l5.187 14.547zm20.67-.663c0 .39.35.74.74.74h3.978c.624 0 .858-.273.858-.74v-8.074c0-1.326.897-2.223 2.067-2.223.35 0 .74.117.935.195.43.156.702-.078.858-.35l1.91-3.12c.547-.898-.974-1.678-3.12-1.678-2.027 0-3.47 1.443-4.25 2.574l-.702-1.716c-.116-.234-.272-.468-.7-.468h-1.834c-.39 0-.74.312-.74.74v14.12zm12.284-7.06c0 4.485 3.51 8.19 8.15 8.19 2.458 0 4.408-.858 5.773-2.223.35-.35.273-.82.04-1.13l-1.95-2.34c-.235-.274-.625-.274-.976 0-.624.467-1.755.935-2.73.935-2.028 0-2.886-1.52-3.003-2.574h9.36c.35 0 .702-.273.74-.663.04-.273.08-.78.08-1.053 0-4.29-3.433-7.332-7.41-7.332-4.603 0-8.074 3.783-8.074 8.19zm5.81-2.184c.157-1.014 1.054-1.833 2.107-1.833 1.014 0 1.99.82 2.067 1.833H235.4zm15.328-10.335c1.716 0 3.12-1.364 3.12-3.08s-1.404-3.12-3.12-3.12c-1.716 0-3.08 1.404-3.08 3.12 0 1.716 1.364 3.08 3.08 3.08zm-2.847 19.58c0 .39.352.74.742.74h4.29c.39 0 .74-.35.74-.74v-14.12c0-.428-.35-.74-.74-.74h-4.29c-.39 0-.74.312-.74.74v14.12zm8.854-7.06c0 4.485 3.315 8.19 7.722 8.19 3.432 0 5.226-2.457 5.226-2.457l.468 1.287c.156.43.43.78.82.78h1.832c.39 0 .74-.35.74-.74v-25.82c0-.39-.35-.74-.74-.74h-4.33c-.39 0-.74.35-.74.74v11.31c-.468-.272-1.91-.74-3.237-.74-4.173 0-7.76 2.69-7.76 8.19zm5.343-.04c0-1.754 1.365-3.12 3.16-3.12 1.793 0 3.12 1.366 3.12 3.12 0 1.795-1.327 3.2-3.12 3.2-1.795 0-3.16-1.405-3.16-3.2z" fill="#C95F45"/></g></svg>