<?xml version="1.0" encoding="UTF-8" standalone="no"?>
<svg width="215px" height="130px" viewBox="0 0 215 130" version="1.1" xmlns="http://www.w3.org/2000/svg" xmlns:xlink="http://www.w3.org/1999/xlink">
    <!-- Generator: Sketch 3.6.1 (26313) - http://www.bohemiancoding.com/sketch -->
    <title>With Term</title>
    <desc>Created with Sketch.</desc>
    <defs></defs>
    <g id="Site" stroke="none" stroke-width="1" fill="none" fill-rule="evenodd">
        <g id="Home" transform="translate(-407.000000, -1776.000000)">
            <g id="Tools" transform="translate(130.000000, 1776.500000)">
                <g id="Title" transform="translate(277.000000, 0.000000)">
                    <g id="With-Term">
                        <g id="Hammer">
                            <path d="M25.6385155,75.6425222 C25.6385155,59.7814413 23.5303359,22.1810858 23.5303359,22.1810858 L36.25337,22.1810858 C36.25337,22.1810858 35.5066,53.7668554 35.5066,69.7643294 C35.5066,87.0250252 39.3816246,126.087105 37.6709673,127.833788 C35.96031,129.580471 24.5629604,129.547464 23.5303359,127.833788 C22.4977114,126.120112 25.6385155,93.0396111 25.6385155,75.6425222 Z" id="Handle" fill="#C95F45"></path>
                            <path d="M0.0573539645,10.9166318 C-0.040537503,15.5802492 0.123927098,17.3392296 0.952461634,17.7804413 C1.78099617,18.2216531 6.92344925,17.5869447 8.1674051,17.3967268 C9.41136095,17.206509 9.4218997,14.0484239 14.0942739,14.2224191 C18.7666481,14.3964143 21.1880816,18.1962651 21.6403381,20.9780517 C22.0925946,23.7598383 21.9267375,25.5596726 22.647798,25.943652 C23.3688584,26.3276315 30.6349501,26.058051 30.6349501,26.058051 C30.6349501,26.058051 37.4226169,26.1747824 37.9231314,25.0543444 C38.4236459,23.9339065 38.0381025,13.0792336 40.1654737,12.5476669 C42.292845,12.0161002 45.1631703,13.2846563 47.1807758,15.0455185 C49.1983813,16.8063806 58.2981246,26.7986374 59.2193962,27.2892332 C60.1406679,27.779829 61.2845607,29.1365456 61.8449271,27.8821204 C62.4052936,26.6276952 53.1691526,11.6265017 49.5737243,8.68682978 C45.9782959,5.74715788 40.2401696,0.62047466 30.3766278,0.236935695 C20.5130861,-0.14660327 20.6801675,0.0574083606 19.8936953,0.409860881 C19.1072232,0.762313401 16.8565401,5.3568596 13.4668473,5.53350395 C10.0771544,5.7101483 7.66989915,2.44651143 7.66989915,2.44651143 C7.66989915,2.44651143 1.28076282,2.43759512 0.639598349,3.14489069 C-0.00156612448,3.85218625 0.155245432,6.25301439 0.0573539645,10.9166318 L0.0573539645,10.9166318 Z" id="Head" fill="#E9E6C9"></path>
                        </g>
                        <g id="Spanner" transform="translate(69.000000, 3.000000)">
                            <path d="M19.0543384,12.8973072 C18.4902965,14.3280789 15.602252,21.7800615 14.9405481,26.0109906 C14.3767472,29.6159282 14.4987974,75.0791538 15.4718575,95.3127684 C15.7283599,100.646426 17.4513106,102.969413 17.8879314,103.476467 C18.4048854,103.803039 20.132412,105.076692 21.1096387,108.023335 C22.2682519,111.516916 18.579142,120.346616 18.579142,120.346616 C18.579142,120.346616 16.7892579,112.706824 16.1354915,111.858716 C15.4817251,111.010608 14.5780784,109.893719 10.6764297,110.876218 C6.77478106,111.858716 6.82776461,112.843785 6.35633349,114.002995 C5.88490236,115.162204 8.115181,123.146083 8.115181,123.146083 C8.115181,123.146083 4.14816404,119.895996 3.38761984,118.891052 C2.62707564,117.886108 0.00717010152,113.810075 0.00717015414,111.271149 C0.00717017979,110.033357 0.659245239,108.913271 1.32758847,108.090322 L1.13945658,108.141183 C1.13945658,108.141183 6.18492479,101.551327 7.18323039,94.8545895 C7.45468645,85.6067621 8.03182536,29.9490672 7.61123444,25.4965139 C7.11278334,20.2197 4.33459676,17.7821129 3.8698373,17.4087086 C3.30931237,17.0111551 2.02921801,15.9576416 1.66811573,14.4138698 C1.20148327,12.418939 1.82762558,7.95246478 2.26616749,6.45469996 C2.70470941,4.95693515 3.85840183,2.85483239 3.85840183,2.85483239 C3.85840183,2.85483239 4.95569307,10.5537122 5.85117332,10.963273 C6.74665357,11.3728339 8.28336749,12.2597751 11.1541046,11.3728336 C14.0248417,10.485892 14.807519,8.83863666 14.807519,7.92454513 C14.807519,7.0104536 13.3323834,0 13.3323834,0 C13.3323834,0 15.6844272,1.33859314 17.5033785,3.38305486 C19.1971248,5.28678882 20.2799847,8.08654994 20.3365002,9.04480545 C20.4537091,11.0321526 19.056782,12.8965393 19.056782,12.8965393 L19.0543384,12.8973072 Z" id="Rectangle-33" fill="#E9E6C9"></path>
                            <rect id="Rectangle-34" fill="#55647F" x="9.61068447" y="38.5272085" width="3.05397885" height="47.4515901" rx="10"></rect>
                        </g>
                        <g id="Window" transform="translate(110.000000, 28.000000)">
                            <g id="Main">
                                <rect id="Field" fill="#55647F" x="0" y="0" width="105" height="74" rx="4"></rect>
                                <g id="Text" transform="translate(3.257299, 9.681347)">
                                    <rect id="Rectangle-19" fill="#FFFFFF" x="60.7326896" y="0.365446891" width="0.617647059" height="4.26354706"></rect>
                                    <text font-family="Hack-Bold, Hack" font-size="4.29806272" font-weight="bold">
                                        <tspan x="0" y="4" fill="#EDEACD">mbp:</tspan>
                                        <tspan x="10.3506081" y="4" fill="#E9E6C9">jackwreid</tspan>
                                        <tspan x="33.6394762" y="4" fill="#C95F45">$</tspan>
                                        <tspan x="36.2271282" y="4" font-family="Hack" font-weight="normal" fill="#FFFFFF"> git push</tspan>
                                    </text>
                                </g>
                            </g>
                            <g id="Window-Bar">
                                <rect id="Top-Bar" fill="#EDEACD" x="0" y="0" width="105" height="6.61398964" rx="20"></rect>
                                <g id="Pips" transform="translate(2.107664, 1.629534)">
                                    <ellipse id="Oval-6" fill="#C95F45" cx="1.67655109" cy="1.67746114" rx="1.67655109" ry="1.67746114"></ellipse>
                                    <ellipse id="Oval-6-Copy" fill="#55647F" cx="6.46669708" cy="1.67746114" rx="1.67655109" ry="1.67746114"></ellipse>
                                    <ellipse id="Oval-6-Copy-2" fill="#393E50" cx="11.4484489" cy="1.67746114" rx="1.67655109" ry="1.67746114"></ellipse>
                                </g>
                            </g>
                        </g>
                    </g>
                </g>
            </g>
        </g>
    </g>
</svg>