<svg width="150" height="102" viewBox="0 0 150 102" xmlns="http://www.w3.org/2000/svg"><title>logo copy</title><g fill="none" fill-rule="evenodd"><g stroke="#393E50" stroke-width="3"><path d="M12.724 3.217L139.192 88.58 2.028 93.856l10.696-90.64z" fill="#55647F"/><path d="M11.945 99.35l-8.602-94 141.614 71.83L11.945 99.35z" fill="#C95F45"/></g><path d="M63.74 77.594h-1.687v-15.71h2.53l2.745 10.368 2.77-10.368h2.53v15.71h-1.686V64.59l-2.82 10.587H66.56l-2.82-10.586v13.004zm13.82 0h-1.686v-15.71h3.637c1.253 0 2.205.298 2.855.894.65.596.976 1.426.976 2.49v4.108c0 1.08-.32 1.914-.963 2.502-.642.588-1.598.882-2.866.882h-1.95v4.834zm4.095-8.218v-4.108c0-.613-.185-1.088-.554-1.426-.37-.34-.9-.508-1.59-.508h-1.95v7.976h1.95c1.43 0 2.145-.645 2.145-1.934zm5.895 8.218h-1.686v-15.71h1.686v7.01h4.745v-7.01h1.687v15.71h-1.687v-7.25H87.55v7.25zM20.446 71.67v-4.772c0-2.745 1.202-4.503 3.604-5.273-2.402-.704-3.604-2.462-3.604-5.274v-4.77c0-4.69 2.687-7.033 8.06-7.033 2.803 0 4.897.61 6.282 1.834 1.385 1.223 2.077 2.956 2.077 5.2v4.77c0 2.746-1.118 4.488-3.354 5.224 2.57.704 3.856 2.478 3.856 5.324v4.772c0 4.688-2.82 7.032-8.46 7.032-5.64 0-8.46-2.344-8.46-7.032zm8.96-8.79h-1c-1.402 0-2.495.402-3.28 1.206-.784.803-1.176 1.74-1.176 2.812v4.973c0 1.206.417 2.144 1.252 2.814.834.67 2.07 1.004 3.704 1.004 1.635 0 2.87-.335 3.704-1.004.835-.67 1.252-1.608 1.252-2.813V66.9c0-1.07-.392-2.01-1.177-2.812-.784-.804-1.877-1.206-3.278-1.206zM23.95 51.378v4.973c0 1.106.392 2.052 1.177 2.84.784.785 1.877 1.18 3.278 1.18h.5c1.403 0 2.496-.395 3.28-1.18.784-.788 1.176-1.734 1.176-2.84V51.38c0-1.205-.39-2.143-1.175-2.813-.784-.67-1.96-1.004-3.53-1.004-1.568 0-2.744.336-3.528 1.005-.785.67-1.177 1.608-1.177 2.813zM40.653 71.67v-4.772c0-2.745 1.2-4.503 3.604-5.273-2.403-.704-3.604-2.462-3.604-5.274v-4.77c0-4.69 2.686-7.033 8.06-7.033 2.802 0 4.896.61 6.28 1.834 1.386 1.223 2.08 2.956 2.08 5.2v4.77c0 2.746-1.12 4.488-3.355 5.224 2.57.704 3.854 2.478 3.854 5.324v4.772c0 4.688-2.82 7.032-8.46 7.032-5.64 0-8.46-2.344-8.46-7.032zm8.96-8.79h-1c-1.403 0-2.496.402-3.28 1.206-.784.803-1.176 1.74-1.176 2.812v4.973c0 1.206.417 2.144 1.25 2.814.836.67 2.07 1.004 3.706 1.004 1.635 0 2.87-.335 3.704-1.004.834-.67 1.25-1.608 1.25-2.813V66.9c0-1.07-.39-2.01-1.175-2.812-.784-.804-1.877-1.206-3.28-1.206zm-5.456-11.502v4.973c0 1.106.392 2.052 1.176 2.84.784.785 1.877 1.18 3.28 1.18h.5c1.4 0 2.494-.395 3.278-1.18.786-.788 1.178-1.734 1.178-2.84V51.38c0-1.205-.392-2.143-1.177-2.813-.783-.67-1.96-1.004-3.528-1.004s-2.745.336-3.53 1.005c-.783.67-1.175 1.608-1.175 2.813z" fill="#55647F"/><path d="M62.61 76.194h-1.686v-15.71h2.53l2.745 10.368 2.77-10.368h2.528v15.71h-1.686V63.19l-2.818 10.587h-1.566L62.61 63.19v13.004zm13.82 0h-1.686v-15.71h3.637c1.254 0 2.205.298 2.856.894.65.596.975 1.426.975 2.49v4.108c0 1.08-.32 1.914-.962 2.502-.643.588-1.598.882-2.867.882h-1.95v4.834zm4.095-8.218v-4.108c0-.613-.185-1.088-.554-1.426-.368-.34-.898-.508-1.59-.508h-1.95v7.976h1.95c1.43 0 2.145-.645 2.145-1.934zm5.896 8.218h-1.686v-15.71h1.687v7.01h4.746v-7.01h1.686v15.71h-1.686v-7.25H86.42v7.25zm-67.104-5.657v-4.77c0-2.747 1.2-4.505 3.604-5.275-2.402-.704-3.603-2.462-3.603-5.274v-4.772c0-4.688 2.686-7.032 8.06-7.032 2.802 0 4.896.61 6.28 1.834 1.386 1.222 2.08 2.955 2.08 5.198v4.772c0 2.746-1.12 4.487-3.355 5.223 2.57.705 3.854 2.48 3.854 5.326v4.77c0 4.69-2.82 7.033-8.46 7.033-5.64 0-8.46-2.345-8.46-7.033zm8.96-8.79h-1c-1.403 0-2.496.402-3.28 1.206-.784.803-1.176 1.74-1.176 2.813v4.972c0 1.206.418 2.143 1.252 2.813.834.67 2.07 1.005 3.704 1.005 1.636 0 2.87-.335 3.705-1.004.835-.67 1.252-1.606 1.252-2.812v-4.972c0-1.072-.392-2.01-1.176-2.813-.784-.804-1.877-1.206-3.28-1.206zM22.82 50.245v4.973c0 1.105.393 2.05 1.177 2.838.784.786 1.877 1.18 3.28 1.18h.5c1.4 0 2.494-.394 3.278-1.18.784-.787 1.177-1.733 1.177-2.838v-4.973c0-1.205-.393-2.143-1.177-2.813-.784-.67-1.96-1.004-3.53-1.004-1.567 0-2.744.335-3.528 1.004-.784.67-1.176 1.608-1.176 2.813zm16.703 20.292v-4.77c0-2.747 1.2-4.505 3.604-5.275-2.403-.704-3.604-2.462-3.604-5.274v-4.772c0-4.688 2.687-7.032 8.06-7.032 2.803 0 4.897.61 6.282 1.834 1.385 1.222 2.077 2.955 2.077 5.198v4.772c0 2.746-1.118 4.487-3.354 5.223 2.57.705 3.855 2.48 3.855 5.326v4.77c0 4.69-2.82 7.033-8.46 7.033-5.64 0-8.46-2.345-8.46-7.033zm8.96-8.79h-1c-1.402 0-2.495.402-3.28 1.206-.784.803-1.176 1.74-1.176 2.813v4.972c0 1.206.417 2.143 1.252 2.813.833.67 2.068 1.005 3.703 1.005 1.635 0 2.87-.335 3.704-1.004.835-.67 1.252-1.606 1.252-2.812v-4.972c0-1.072-.393-2.01-1.178-2.813-.784-.804-1.877-1.206-3.278-1.206zm-5.456-11.502v4.973c0 1.105.392 2.05 1.177 2.838.784.786 1.877 1.18 3.278 1.18h.5c1.403 0 2.496-.394 3.28-1.18.784-.787 1.176-1.733 1.176-2.838v-4.973c0-1.205-.392-2.143-1.176-2.813-.784-.67-1.96-1.004-3.53-1.004-1.568 0-2.744.335-3.528 1.004-.785.67-1.177 1.608-1.177 2.813z" fill="#393E50"/></g></svg>