<svg width="100" height="115" viewBox="0 0 100 115" xmlns="http://www.w3.org/2000/svg"><title>Logo</title><g fill="none" fill-rule="evenodd"><path d="M49.41 13.67c1.6 3.16 1.42 6.368 2.33 7.418.91 1.05 4.148 2.174 4.148 2.174l-1.874 3.32s-1.853-3.94-2.673-4.717c-.82-.777-5.596-9.443-6.167-10.862-.57-1.42-1.68-3.97-2.427-4.36-.746-.386-1.728-1.357-1.728-1.76 0-.402.887-.144.887-1.273 0-1.13-1.114-2.374-1.114-2.976 0-.602 1.737-.665 1.947-.333.21.334-.03 1.298-.03 1.89 0 .595.935.925 1.218 1.318.282.394-.027 2.19.364 2.816.39.625 3.52 4.19 5.12 7.347zm27.368 34.984s2.162 2.96 3.506 3.576c1.344.617 4.648 1.982 6.292 2.312 1.644.33 2.16.016 2.918.402.758.387 4.966 3.615 6.082 3.872 1.116.257.672-.46 1.342-.46s1.99 1.894 2.675 1.894c.683 0-1.78-3.262-2.735-3.722-.956-.46-6.866-3.825-8.05-4.06-1.185-.238-4.822.158-6.178-.445-1.357-.604-2.974-3.332-2.974-3.332l-2.878-.036zM30.204 28.9c0 1.054 4.895 5.74 4.895 5.74l2.127-.87s-3.883-6.402-4.532-6.402c-.65 0-1.677-.662-2.084-1.21-.406-.548.17-1.927.17-2.446 0-.52-3.58.733-3.03 1.436.547.703 1.51.405 1.84.92.33.517.614 1.778.614 2.832zM70.63 68.027s2.774 3.176 3.647 4.413c.874 1.236 4.467 5.417 4.467 5.96 0 .54-1.09 2.334-1.59 2.068s.412-1.717-.063-2.247c-.475-.528-.897-1.86-1.51-1.86-.615 0-1.518 1.04-1.967.52-.45-.52-2.8-6.227-3.485-6.906-.686-.678-1.39-1.304-1.39-1.304l1.893-.643zM56.61 88.19c-.67 1.907-8.547 10.217-8.547 13.11 0 2.89 2.268 5.56 3.27 6.902 1.003 1.342.87 3.375.87 3.375h1.674l.646 3.14 2.274.086s-2.15-1.924-2.15-3.4c0-1.477-1.144-3.82-2.106-5.078-.96-1.257-2.88-3.39-2.88-3.39s5.46-6.254 6.733-8.85c1.273-2.595 2.193-4.603 2.193-6.91 0-2.306-.168-3.84-.168-3.84l-2.676 1.303s1.536 1.648.867 3.553zM16.882 54.713c-2.342 3.797-3.777 14.82-3.777 14.82s-2.222-.884-5.313-.442C4.7 69.534.397 71.076.147 71.54c-.25.467.165 2.153.165 2.153s1.14-1.34 2.036-1.854c.896-.514 1.89.353 1.89.353s2.275-1.526 3.664-1.526c1.388 0 5.53.953 6.626.477 1.096-.477 2.696-10.94 3.425-12.79.73-1.854 2.78-3.473 2.78-3.473l1.483-5.037s-2.992 1.073-5.334 4.87z" fill="#393E50"/><path d="M24.742 86.03c8.895 8.684 28.21 6.098 38.69-6.52 5.87-7.068 11.856-18.286 10.058-26.133-1.413-6.164-9.526-9.3-13.44-13.118-4.374-4.272-6.132-11.536-11.947-11.664-6.008-.133-16.087 7.044-21.413 13.457C16.21 54.67 15.847 77.348 24.742 86.03z" fill="#C95F45"/><path d="M44.366 60.41c4.17-4.494 20.254-24.258 20.254-24.258l1.14 1.31S48.434 57.808 45.423 61.216c-3.01 3.407-19.896 21.95-19.896 21.95l-.534-.66S40.196 64.904 44.366 60.41z" fill="#393E50"/><path d="M52.337 63.085c4.098-4.378 8.55 2.97 6.473 5.46-2.077 2.493-10.57-1.082-6.473-5.46zM41.683 53.9c2.71-3.548-3.704-10.24-6.427-6.637-2.722 3.605 3.716 10.184 6.427 6.637zm-6.457-19.19c1.244-1.157 3.052-1.81 3.438-1.263.76 1.077-3.094 5.582-4.572 4.516-.726-.524-.068-2.133 1.134-3.252zm32.761 29.983c1.293-1.78 2.353-2.36 3.174-1.736.822.623.42 2.172-.43 3.367-.847 1.195-2.525 2.746-3.854 2.102-1.33-.643-.183-1.953 1.11-3.733zM21.38 56.936c2.73 1.627 3.18 9.77.585 9.77-2.597 0-3.29-5.15-3.29-6.188 0-1.037-.024-5.21 2.705-3.582zm25.687 25.097c3.792 0 5.332 1.23 5.332 2s-2.388 2.69-4.244 2.69c-1.856 0-5.703.003-5.703-2.104s.823-2.587 4.614-2.587zm6.939-33.251c4.002 3.502 6.322 4.74 8.068 2.37 1.745-2.37-.08-5.703-.08-6.885 0-1.182.23-2.234.23-2.234l-1.613-1.595s-.962 1.13-2.933 1.13c-1.97 0-3.27-1.976-5.32-.235-2.047 1.74-2.353 3.947 1.65 7.45z" fill="#393E50"/><path d="M61.168 42.333c4.962 5.198 17.256 8.343 18.764 7.57 1.508-.77 3.824-4.42 3.824-6.353 0-1.933.455-5.56-.494-6.816-.95-1.255-2.905-1.738-3.81-2.812-.907-1.075-2.295-4.086-3.992-5.285-1.697-1.2-4.717-2.718-6.028-4.068-1.31-1.35-.705-3.025-1.736-3.87-1.03-.846-6.398-.694-8.808.116-2.41.81-5.335 2.792-5.335 4.22 0 1.427 1.395 4.22 1.395 5.41 0 1.19 1.257 6.688 6.22 11.887z" fill="#55647F"/><path d="M69.107 23.664c0 1.687 2.948 4.366 4.87 5.972 1.923 1.607 5.538 5.445 6.816 5.445 1.278 0 4.452-2.53 4.452-3.988 0-1.456-.652-7.225-2.552-8.91-1.9-1.683-4.843-2.935-6.497-2.935s-2.71-.855-3.62 0c-.908.855-3.47 2.73-3.47 4.417z" fill="#393E50"/><path d="M76.706 11.81c0-2.193 2.376-3.11 2.772-2.82.397.29-1.028 1.103-1.028 1.72 0 .62-.474 2.303-.474 3.868 0 1.564 1.076 6.125 1.076 6.125l-1.74-.52s-.606-6.18-.606-8.373zm13.797 16.132c2.114 0 4.8-1.82 4.047-2.58-.753-.757-2.297 1.396-3.456 1.396-1.158 0-4.004-1.282-4.836-1.282-.833 0-3.058.078-3.058.078l.96 2.153s1.77-.5 3.015-.5 1.214.735 3.328.735zM73.422 13.746c.826-.474 1.79 1.626 2.158 2.464.37.837.924 3.417.924 3.417l-1.483.094s-.345-2.276-.856-2.75c-.51-.475-1.567-2.75-.742-3.224zM84.31 28.353s2.4.166 3.088.712c.688.546 3.114 2.05 2.424 2.77-.69.72-2.292-1.367-3.107-1.367-.814 0-2.82-.188-2.82-.188l.415-1.927z" fill="#393E50"/></g></svg>