<svg width="148" height="84" viewBox="0 0 148 84" xmlns="http://www.w3.org/2000/svg"><title>Logo</title><g fill="none" fill-rule="evenodd"><path d="M127.71.22l7.947 7.947L71.815 72.01 7.605 7.802 15.29.12l56.26 56.26L127.71.22z" fill="#C95F45"/><path d="M86.867 76.516l-1.214 1.214-1.98-1.98 1.215-1.213-2.16-2.16 2.222-2.222 2.16 2.16 1.326-1.326 1.978 1.978-1.326 1.326 4.727 4.727c.547.548 1.14.503 1.777-.134l.335-.336 1.875 1.875-.335.336c-.615.615-1.18 1.074-1.697 1.378-.517.304-1.01.462-1.48.476a2.658 2.658 0 0 1-1.332-.31c-.42-.218-.863-.56-1.33-1.027l-4.76-4.76zm14.784-.2l-2.22 2.223-12.564-12.565 2.22-2.22 4.684 4.682c-.214-.73-.225-1.503-.034-2.316a4.318 4.318 0 0 1 1.174-2.106 2.833 2.833 0 0 1 1.19-.696c.476-.15 1-.206 1.568-.17.57.035 1.18.216 1.834.542.654.326 1.274.783 1.862 1.37l5.772 5.773-2.222 2.22-4.64-4.64c-.576-.575-1.093-1.02-1.55-1.334-.458-.316-.858-.5-1.2-.556-.343-.055-.64-.034-.893.064-.252.097-.505.272-.757.524-.2.2-.358.404-.47.608-.11.204-.18.445-.205.724-.025.28.015.572.122.88.107.308.302.663.584 1.066.283.403.655.835 1.115 1.296l4.63 4.63zm3.907-15.155l3.556-3.556c-.558-.478-1.178-.742-1.86-.792-.68-.05-1.28.183-1.797.7-.51.51-.74 1.11-.687 1.8.052.69.315 1.307.787 1.85zm5.74 2.038c.568-.57.82-1.2.756-1.897l2.81-1.115c.185.897.12 1.803-.194 2.717-.316.914-.777 1.675-1.386 2.283a5.253 5.253 0 0 1-2 1.256 6 6 0 0 1-2.357.337c-.808-.044-1.63-.26-2.464-.647a7.931 7.931 0 0 1-2.288-1.617c-1.383-1.382-2.135-2.937-2.256-4.666-.122-1.728.395-3.17 1.55-4.323.756-.757 1.644-1.227 2.66-1.41 1.02-.182 2.063-.07 3.133.334 1.07.404 2.066 1.067 2.988 1.99l.59.587-5.72 5.717c.382.37.763.652 1.146.85.383.2.72.315 1.014.344.293.03.576.008.85-.063a2.36 2.36 0 0 0 .676-.28c.178-.114.342-.246.49-.395zm6.25-11.832c-.505.505-.777 1.068-.817 1.69-.04.62.135 1.123.52 1.51.387.385.884.556 1.494.51.61-.044 1.17-.322 1.68-.833.505-.505.768-1.046.787-1.624.02-.58-.167-1.064-.558-1.456-.392-.39-.88-.582-1.468-.572-.586.01-1.132.27-1.637.774zm-2.607-1.143c.568-.57 1.213-.923 1.935-1.062.72-.14 1.323-.082 1.807.172l-.71-.708c-.34-.34-.683-.59-1.03-.748-.35-.16-.668-.24-.96-.243-.29-.004-.578.05-.865.158-.288.11-.533.237-.737.383a4.964 4.964 0 0 0-.6.512c-.263.264-.495.55-.696.862-.2.31-.337.55-.408.72-.072.17-.17.414-.296.736l-2.304-.53c.05-.466.27-1.06.66-1.784.39-.725.815-1.317 1.274-1.776.47-.47.956-.867 1.456-1.188.5-.32 1.045-.564 1.637-.73a4.962 4.962 0 0 1 1.772-.174c.59.05 1.208.24 1.856.573.648.332 1.28.806 1.897 1.422l2.627 2.627 2.635 2.635-2.214 2.212-1.175-1.175c.25.49.308 1.09.177 1.803-.13.713-.48 1.353-1.05 1.922-.877.878-1.94 1.3-3.184 1.266-1.245-.034-2.343-.526-3.293-1.476-.95-.95-1.44-2.04-1.464-3.272-.025-1.23.393-2.276 1.254-3.137zm6.368-8.15l-1.214 1.215-1.978-1.98 1.214-1.213-2.16-2.16 2.22-2.22 2.16 2.16 1.327-1.327 1.98 1.98-1.327 1.325 4.726 4.726c.548.546 1.14.5 1.777-.136l.336-.336 1.874 1.876-.336.335c-.614.614-1.18 1.073-1.697 1.376-.516.304-1.008.463-1.477.477-.47.013-.913-.09-1.333-.31-.42-.218-.864-.56-1.33-1.028l-4.762-4.76zm10.902-10.26c-.97.267-1.594.54-1.87.815a1.965 1.965 0 0 0-.576 1.077c-.068.402-.024.805.132 1.208.156.403.355.782.597 1.14.242.356.524.696.847 1.02l4.778 4.777-2.22 2.222-9.273-9.272 2.222-2.22 1.39 1.39a4.882 4.882 0 0 1-.176-2.157c.104-.736.33-1.28.68-1.63.287-.286.666-.513 1.137-.678.472-.166.95-.255 1.432-.265l.9 2.572zm5.524-2.83l3.556-3.555c-.558-.48-1.178-.743-1.86-.793-.68-.05-1.28.183-1.797.7-.51.51-.74 1.11-.687 1.8.053.69.316 1.307.788 1.85zm5.74 2.038c.568-.568.82-1.2.756-1.896l2.81-1.116c.185.897.12 1.803-.194 2.717-.315.914-.776 1.675-1.385 2.283a5.246 5.246 0 0 1-1.998 1.256c-.764.27-1.55.38-2.358.336-.808-.044-1.63-.26-2.464-.646a7.954 7.954 0 0 1-2.288-1.618c-1.383-1.382-2.135-2.937-2.256-4.666-.12-1.728.396-3.17 1.55-4.323.757-.757 1.645-1.227 2.662-1.41 1.018-.182 2.062-.07 3.132.334 1.07.405 2.066 1.068 2.988 1.99l.588.588-5.718 5.717c.38.37.762.652 1.145.85.383.2.72.315 1.014.344.293.028.576.007.85-.064a2.36 2.36 0 0 0 .676-.28c.178-.114.342-.246.49-.395zm-132.849-.119c.284-1.03.095-1.874-.565-2.535-.567-.568-1.326-.776-2.275-.625-.95.15-1.847.65-2.694 1.497-.84.84-1.31 1.74-1.41 2.693-.1.955.164 1.745.79 2.37.115.116.228.212.34.29.112.077.213.14.302.19.09.047.194.08.315.097.12.017.21.03.27.04a1.02 1.02 0 0 0 .286-.028l.26-.052a4.67 4.67 0 0 0 .28-.082c.143-.047.23-.073.258-.08l.885 2.803a6.598 6.598 0 0 1-2.765.097 4.448 4.448 0 0 1-2.435-1.268c-1.37-1.373-2.02-2.903-1.945-4.59.075-1.69.847-3.267 2.316-4.736 1.45-1.452 3.037-2.228 4.756-2.33 1.72-.1 3.205.476 4.457 1.727.665.667 1.13 1.497 1.392 2.49.262.996.258 1.962-.014 2.9l-2.802-.867zm5.022 9.03c-.506-.504-1.07-.776-1.69-.815-.62-.04-1.124.134-1.51.52-.386.386-.556.883-.512 1.493.045.61.323 1.17.834 1.68.505.507 1.047.77 1.625.788.578.02 1.062-.167 1.454-.56.39-.39.58-.88.57-1.466-.01-.587-.267-1.133-.772-1.638zm1.143-2.606c.57.568.923 1.213 1.063 1.935.14.72.082 1.324-.172 1.807l.71-.71c.34-.34.59-.683.748-1.032.158-.348.24-.667.243-.957.004-.29-.048-.58-.157-.866a3.239 3.239 0 0 0-.383-.737 5.276 5.276 0 0 0-1.372-1.298c-.31-.2-.55-.335-.72-.407a31.85 31.85 0 0 0-.738-.296l.53-2.304c.466.05 1.06.27 1.785.66.724.39 1.315.815 1.774 1.274.47.47.866.956 1.187 1.456.32.5.565 1.045.73 1.637.166.592.224 1.183.174 1.773-.05.59-.24 1.208-.57 1.855-.333.648-.807 1.28-1.424 1.896L17.57 45.64l-2.636 2.636-2.213-2.213 1.176-1.175c-.49.248-1.09.307-1.803.176-.712-.13-1.353-.48-1.92-1.05-.88-.877-1.302-1.94-1.268-3.184.034-1.245.526-2.343 1.477-3.293.95-.95 2.04-1.44 3.27-1.464 1.232-.025 2.278.393 3.14 1.254zM19.06 52.4l-2.223-2.22 9.28-9.28 2.222 2.22-1.4 1.4c.73-.214 1.502-.225 2.315-.034.813.19 1.516.582 2.107 1.174.316.315.548.712.696 1.19.15.476.206 1 .17 1.568-.035.57-.216 1.18-.542 1.834a7.158 7.158 0 0 1-1.37 1.86l-5.773 5.773-2.22-2.22 4.64-4.64c.575-.577 1.02-1.094 1.334-1.552.315-.458.5-.858.555-1.2.055-.342.034-.64-.064-.892-.097-.252-.272-.505-.524-.758-.2-.2-.404-.357-.608-.47a1.844 1.844 0 0 0-.724-.204 2.078 2.078 0 0 0-.88.122c-.308.107-.663.302-1.066.584-.403.283-.835.654-1.296 1.115l-4.63 4.63zm9.944 9.946l6.352-12.19 2.334 2.332-4.378 7.478 7.59-4.266 2.126 2.127-12.19 6.353-1.834-1.834zm14.722 5.666c-.505-.505-1.068-.777-1.69-.816-.62-.04-1.124.134-1.51.52-.386.386-.556.884-.51 1.493.044.61.322 1.17.833 1.68.504.505 1.045.767 1.623.786.578.02 1.063-.167 1.455-.56.39-.39.582-.88.57-1.466-.01-.587-.267-1.132-.772-1.638zm1.143-2.606c.567.568.92 1.213 1.06 1.934.14.722.084 1.324-.17 1.807l.708-.708c.34-.34.59-.685.748-1.033.16-.348.24-.668.243-.958a2.35 2.35 0 0 0-.16-.868 3.168 3.168 0 0 0-.38-.736 5.081 5.081 0 0 0-.513-.6 5.319 5.319 0 0 0-.862-.696c-.31-.2-.55-.337-.72-.41-.17-.07-.414-.17-.736-.295l.53-2.304c.465.052 1.06.272 1.783.662.724.39 1.316.814 1.775 1.274.47.47.867.956 1.188 1.455.32.5.564 1.047.73 1.64a4.95 4.95 0 0 1 .174 1.77c-.05.59-.24 1.21-.573 1.857-.332.647-.806 1.28-1.422 1.895l-2.627 2.627-2.635 2.635-2.213-2.213 1.175-1.175c-.49.248-1.09.306-1.803.175-.713-.13-1.353-.48-1.922-1.05-.878-.877-1.3-1.94-1.266-3.184.033-1.245.526-2.342 1.476-3.293.95-.95 2.04-1.438 3.272-1.463 1.23-.025 2.276.392 3.137 1.254zm6.208 10.53c-.166-.535-.278-.97-.338-1.307-.06-.337-.074-.7-.04-1.088.03-.388.15-.76.354-1.113.205-.355.506-.73.904-1.128.766-.767 1.663-1.087 2.692-.963 1.03.124 2.03.67 3 1.642.9.9 1.385 1.903 1.452 3.007.067 1.103-.188 2.053-.764 2.847L55.9 76.142c.31-.437.437-.82.377-1.152-.06-.33-.253-.66-.58-.987-.345-.344-.664-.56-.957-.645-.293-.086-.587.018-.88.312a.937.937 0 0 0-.278.708c.006.282.066.552.18.81l.516 1.164c.23.517.415.98.558 1.388.337.982.438 1.843.3 2.583-.135.74-.566 1.47-1.292 2.197-.743.743-1.697 1.022-2.86.837-1.165-.184-2.22-.75-3.168-1.697-.93-.93-1.452-1.95-1.568-3.055-.116-1.107.157-2.176.82-3.206l2.335 1.66c-.283.408-.38.85-.296 1.328.086.477.312.9.68 1.267.2.2.378.362.533.482.155.12.326.222.513.305a.83.83 0 0 0 .556.055c.183-.046.362-.156.535-.328.155-.157.25-.347.285-.57.035-.225.01-.483-.072-.773a9.027 9.027 0 0 0-.287-.85c-.108-.275-.242-.61-.403-1.008-.16-.397-.283-.742-.37-1.035z" fill="#393E50"/></g></svg>