<svg width="178" height="178" viewBox="0 0 178 178" xmlns="http://www.w3.org/2000/svg"><title>Group 2</title><g fill="none" fill-rule="evenodd"><path fill-opacity=".01" fill="#848484" d="M0 0h178v178H0z"/><path d="M148.217 92.68l2.735-15.066 2.735 15.065h-5.47zm-.616 3.395l-1.357 7.475h-3.919l6.317-29.469h1.668l-.014-.081h2.951l6.32 29.469h-3.921l-1.342-7.394H147.6z" fill="#C95F45"/><path d="M125.749 74.033V74h-3.996v29.434h3.996V90.885h3.185s.728.073 1.096.51c.367.435.284 1.373.284 1.373v10.66h4.05v-11.63s-.027-1.149-.952-1.852c-.925-.703-2.4-1.062-2.4-1.062s1.554-.573 2.368-1.227c.813-.654.957-2.803.957-2.803v-6.486s-.154-1.798-1.285-3.118c-1.13-1.32-3.28-1.217-3.28-1.217h-4.023zm.003 3.425v10.097h2.903s1.004-.08 1.446-.82c.443-.739.505-1.728.505-1.728V79.04s.05-.733-.444-1.106c-.495-.373-1.017-.473-1.017-.473l-3.393-.004z" fill="#55647F"/><path d="M102.344 74v29.55h10.548V100.4h-6.645v-9.673h6.381v-3.592h-6.221v-9.462h6.757v-3.546L102.344 74z" fill="#C95F45"/><path d="M80.081 74h14.271v3.396H80.081V74zm5.138 3.396h3.996v26.038h-3.996V77.396z" fill="#55647F"/><path d="M62.385 74v29.55h10.547V100.4h-6.645v-9.673h6.382v-3.592h-6.222v-9.462h6.757v-3.546L62.384 74z" fill="#C95F45"/><path d="M45.52 83.336L41.71 74h-4.132l5.894 14.352-6.205 15.201h4.056l4.197-10.216 4.195 10.216h4.056l-6.204-15.2L53.462 74h-4.131l-3.811 9.336z" fill="#55647F"/><path d="M19.058 74.185v29.55h10.548v-3.149h-6.645v-9.672h6.381V87.32h-6.221V77.86h6.757v-3.546l-10.82-.129z" fill="#C95F45"/></g></svg>