<svg width="100" height="95" viewBox="0 0 100 95" xmlns="http://www.w3.org/2000/svg"><title>Group 2</title><g fill="none" fill-rule="evenodd"><path fill-opacity=".02" fill="#FFF" d="M0 .053h100v94.384H0z"/><g transform="rotate(20 27.046 154.268)"><path d="M1.92 13.224L.521 5.618C.182 5.214 0 4.785 0 4.34 0 1.943 5.298 0 11.834 0c6.225 0 11.328 1.763 11.8 4.001L23.79 4l-2.042 9.33v69.26h-.006c-.193 4.938-4.556 8.886-9.909 8.886-5.353 0-9.715-3.948-9.908-8.885h-.007V13.224z" fill="#55647F"/><path d="M19.116 82.778h.075V23.405l-.016.519s-.659 4.542-3.316 7.999c-2.656 3.457-5.636 2.323-8.842 4.985-1.595 1.324-2.267 2.769-2.54 3.887v41.983h.075c.51 3.398 3.576 6.01 7.282 6.01s6.772-2.612 7.282-6.01z" fill="#C95F45"/><ellipse fill="#C95F45" cx="12.154" cy="4.006" rx="8.316" ry="2.003"/><path d="M9.228 68.444a2.212 2.212 0 1 0-.616-4.38 2.212 2.212 0 0 0 .616 4.38zm.213 9.462a1.106 1.106 0 1 0-.308-2.19 1.106 1.106 0 0 0 .308 2.19zm5.708-16.994a1.382 1.382 0 1 0-.385-2.738 1.382 1.382 0 0 0 .385 2.738zm-1.847-13.14a1.382 1.382 0 1 0-.385-2.738 1.382 1.382 0 0 0 .385 2.738z" fill="#E9E6C9"/></g></g></svg>