<svg width="100" height="99" viewBox="0 0 100 99" xmlns="http://www.w3.org/2000/svg"><title>Logo</title><g fill="none" fill-rule="evenodd"><path d="M.171.67l85.403 90.242s2.91 2.047 5.134-.341c2.225-2.388.513-4.777.513-4.777L.171.671z" fill="#C95F45"/><path d="M27.212 9.2l65.036 69.941s2.91 2.047 5.135-.34c2.225-2.389.513-4.777.513-4.777L27.212 9.2zM8.215 27.453l65.036 69.941s2.91 2.047 5.134-.34c2.225-2.39.514-4.777.514-4.777L8.215 27.453z" fill="#55647F"/><path d="M50.072 16.535L95.51 65.4s2.033 1.43 3.587-.238c1.554-1.669.359-3.337.359-3.337L50.072 16.535zM14.474 48.606L59.91 97.47s2.033 1.43 3.587-.239c1.555-1.668.36-3.337.36-3.337L14.473 48.606z" fill="#393E50"/><path d="M73.422 27.112l20.594 22.214s1.005.67 1.774-.112c.769-.782.177-1.564.177-1.564L73.422 27.112zM25.843 71.124l20.594 22.214s1.005.67 1.774-.112c.769-.782.178-1.564.178-1.564L25.843 71.124z" fill="#C95F45"/></g></svg>