<svg width="123" height="123" viewBox="0 0 123 123" xmlns="http://www.w3.org/2000/svg"><title>Logo</title><g fill="none" fill-rule="evenodd"><circle fill="#393E50" cx="61.5" cy="61.5" r="61.5"/><g fill="#C95F45"><path d="M13.618 81.494a3.372 3.372 0 0 1-.474-1.147 5.834 5.834 0 0 1-.13-1.337c.005-.46.06-.926.164-1.397.105-.47.234-.91.387-1.323.085-.196.162-.4.23-.617.15-.372.298-.74.446-1.102.15-.362.334-.66.556-.896-.04-.216.006-.45.14-.706.13-.254.26-.49.388-.705a1.46 1.46 0 0 0 .11-.162 1.5 1.5 0 0 1 .075-.13 180.206 180.206 0 0 1 1.903-3.823c.552-1.078 1.09-2.136 1.61-3.175a51.833 51.833 0 0 0 1.522-3.32 1.7 1.7 0 0 1 .42-.237c.04-.02.087-.04.144-.058.057-.02.12-.03.192-.03.334.216.738.417 1.212.603.476.186.893.28 1.25.28l.38.44c.18.294.33.603.445.926.116.323.096.74-.06 1.25-.137.176-.245.284-.324.323-.182.45-.364.846-.547 1.19a46.2 46.2 0 0 1-.54.984c-.2.353-.393.706-.576 1.058-.183.353-.36.784-.53 1.294-.13.137-.217.255-.26.353a5.18 5.18 0 0 1-.14.293c-.055.117-.12.24-.194.367-.074.128-.174.24-.3.338-.163.608-.347 1.103-.55 1.485-.204.382-.406.76-.607 1.132a52.842 52.842 0 0 0-1.01 2.043 9.127 9.127 0 0 0-.7 2.307c.232-.058.44-.088.628-.088.244 0 .472.04.686.118a6.533 6.533 0 0 1 2.28-.647 33.436 33.436 0 0 1 2.383-.147c.652 0 1.26-.028 1.828-.087.17.137.283.21.338.22.055.01.148.015.278.015h.168c.056 0 .13.01.22.03.23.274.462.465.693.573.23.108.48.21.75.31.233.097.46.2.683.308.223.108.437.25.643.426l.103 1.5c.13.215.18.362.154.44a.81.81 0 0 1-.153.412l.02.382c-.365.08-.608.162-.73.25-.12.088-.254.2-.4.338-.208.02-.407.03-.595.03-.378 0-.77.058-1.177.176-.543-.216-1.154-.324-1.832-.324a11.148 11.148 0 0 0-1.621.118c-.288.04-.574.074-.86.103-.285.028-.57.043-.852.043-.23.04-.393.07-.49.088-.096.02-.193.05-.29.09-.665.215-1.38.43-2.15.646a8.411 8.411 0 0 1-2.285.324c-1.113 0-1.976-.294-2.586-.882a2.514 2.514 0 0 0-.128-.353 1.86 1.86 0 0 1-.09-.206 1.062 1.062 0 0 1-.163-.28 1.59 1.59 0 0 1-.09-.426zm19.654.88c-.5-.41-.917-.9-1.25-1.468a7.736 7.736 0 0 1-.764-1.823c-.033-1.333.142-2.543.52-3.63.38-1.088.87-2.093 1.475-3.014a21.013 21.013 0 0 1 1.992-2.588l2.09-2.322c.12.06.224.06.313 0 .088-.06.17-.137.245-.235.075-.098.16-.196.25-.294a.8.8 0 0 1 .31-.205c.094-.176.205-.323.337-.44.13-.12.27-.23.418-.34a5.43 5.43 0 0 0 .42-.337c.13-.118.25-.265.36-.44.185-.04.35-.11.497-.207.146-.097.284-.205.414-.322.13-.118.263-.226.4-.324s.298-.176.485-.235l.04-.383c.418-.196.73-.41.933-.647.205-.235.452-.54.742-.91.2-.02.357-.03.473-.03.116 0 .3-.02.555-.06.196-.332.372-.577.53-.734.16-.157.382-.333.67-.53.25.158.526.25.826.28.3.03.56.18.785.456-.005.235.04.416.136.544.095.127.2.245.316.352.116.108.23.22.346.338.115.118.18.285.198.5.09 0 .15-.02.18-.06.03-.038.09-.048.177-.028.023.157.048.284.075.382.028.098.06.186.1.265a2.118 2.118 0 0 1 .204.616c-.11.235-.212.485-.307.75-.094.264-.254.446-.48.544-.012.156.035.24.143.25.108.01.165.083.172.22a.726.726 0 0 1-.118.44c.434.922.823 1.887 1.166 2.896.347 1.01.755 1.975 1.225 2.896-.055.274-.06.544-.013.808.047.265.112.525.197.78.085.254.166.51.242.764.075.255.123.51.144.764a5.652 5.652 0 0 1-.362 2.176c-.134.352-.305.68-.51.984a2.333 2.333 0 0 1-.69.69c-.326.393-.72.712-1.187.957a7.32 7.32 0 0 0-1.297.868c-.274.157-.563.27-.87.338-.305.068-.62.142-.945.22-.256.157-.558.31-.907.456-.35.147-.707.28-1.073.397a9.25 9.25 0 0 1-1.095.278 2.96 2.96 0 0 1-.964.044c-.698.255-1.37.43-2.02.53-.65.097-1.4.048-2.253-.148-.838.118-1.59.08-2.253-.117a4.907 4.907 0 0 1-1.745-.912zm3.704-7.348c-.278.373-.526.77-.744 1.19a4.43 4.43 0 0 0-.436 1.485c.342.335.767.535 1.275.604.51.07 1.036.078 1.583.03.546-.05 1.095-.123 1.645-.22.55-.1 1.04-.148 1.47-.148.014-.176.096-.265.245-.265a5.817 5.817 0 0 0 2.24-.69c.7-.382 1.427-.77 2.183-1.16.11-.236.247-.442.41-.618.16-.176.263-.43.307-.764a1.806 1.806 0 0 1-.148-.44 2.406 2.406 0 0 1 0-.53 11.612 11.612 0 0 1-1.06-2.308 16.164 16.164 0 0 0-1.005-2.367.866.866 0 0 1-.246.294c-.118.098-.235.08-.35-.058-.073.195-.168.327-.284.395-.116.07-.243.103-.38.103s-.272-.03-.403-.088a1.236 1.236 0 0 1-.35-.235c-.692.55-1.38 1.078-2.062 1.587a11.668 11.668 0 0 0-1.903 1.794c-.098.058-.155.078-.17.058-.018-.02-.084-.01-.198.03-.23.45-.487.857-.773 1.22-.285.362-.567.73-.844 1.102zm15.646.03a27.457 27.457 0 0 1 2.173-3.602 14.615 14.615 0 0 1 2.763-2.925c.172-.138.31-.28.42-.427.107-.147.215-.29.322-.426a2.28 2.28 0 0 1 .36-.368c.132-.108.3-.182.5-.22a9.407 9.407 0 0 1 1.705-1.56 33.4 33.4 0 0 1 2.03-1.35c.7-.432 1.4-.873 2.106-1.324.703-.45 1.337-.94 1.902-1.47.193.137.348.18.465.132a.502.502 0 0 1 .362-.014c.152.372.357.632.614.78.257.146.523.293.798.44.275.147.533.323.772.53.24.204.42.484.542.836-.125 0-.185.05-.177.147.007.098.028.206.063.324.034.118.05.226.05.324s-.083.147-.246.147c-.002.138.06.207.187.207s.19.07.187.206c0 .117-.024.21-.07.28-.046.068-.052.18-.018.337-.44.314-.93.613-1.47.897l-1.71.896c-.6.314-1.212.652-1.834 1.015-.624.362-1.246.78-1.867 1.25a31.219 31.219 0 0 0-3.756 3.365 28.909 28.909 0 0 0-1.706 1.97 18.483 18.483 0 0 0-1.385 1.984c.032.098.08.186.14.264.06.08.108.168.14.266.71.04 1.372.034 1.99-.015a6.162 6.162 0 0 1 1.845.134.408.408 0 0 0 .15-.236.28.28 0 0 1 .177-.205 22.927 22.927 0 0 0 3.58-.662c1.11-.303 2.236-.61 3.38-.925a9.574 9.574 0 0 0-.884-.323c-.107-.118-.1-.22.024-.31.123-.087.224-.18.3-.278a2.179 2.179 0 0 1-.717-.706c-.186-.294-.29-.676-.314-1.146a.557.557 0 0 0 .206-.412.444.444 0 0 0-.184-.382c-.09-.04-.146-.04-.166 0a.634.634 0 0 0-.045.118.318.318 0 0 1-.06.117c-.027.04-.078.04-.15 0a1.39 1.39 0 0 1 .153-.53 1.73 1.73 0 0 0 .18-.5l2.328-1.615c.234.195.524.4.868.617.345.215.71.43 1.09.647.384.215.776.436 1.178.66.402.226.777.447 1.125.662.33.157.615.348.852.574.237.225.466.46.686.705.22.245.44.485.66.72.22.236.488.432.802.588-.04.315-.023.57.05.766.072.196.088.43.048.705a6.24 6.24 0 0 1-1.31 1.692c-.51.46-1.085.857-1.72 1.19-.633.333-1.31.613-2.03.838-.718.225-1.456.44-2.213.647-.758.205-1.522.42-2.29.646-.77.226-1.528.485-2.273.78-.32 0-.594.01-.82.03a6.243 6.243 0 0 0-.655.087l-.626.118c-.21.04-.437.068-.683.088-.094-.02-.156 0-.186.06a.41.41 0 0 1-.133.146 6.85 6.85 0 0 1-1.022.088h-.764c-.263 0-.538.04-.824.117-.287.08-.552.108-.797.09-1.694-.08-2.99-.707-3.888-1.883-.892-1.176-1.323-2.793-1.292-4.85.024-.098.01-.162-.045-.19a.508.508 0 0 1-.133-.104 1.98 1.98 0 0 1 .12-.588c.067-.177.09-.402.07-.676zm21.732 7.026a7.83 7.83 0 0 1-.234-.985c-.06-.343-.123-.672-.192-.985.005-.274.065-.475.18-.603.114-.128.238-.25.37-.368.45-.02.854-.06 1.21-.118.357-.06.704-.117 1.04-.176.34-.06.676-.113 1.014-.162.337-.05.702-.073 1.095-.073.284-.608.548-1.19.793-1.75l.698-1.602a8.4 8.4 0 0 1 .427-1.366c.173-.42.342-.823.505-1.205.162-.383.306-.765.43-1.147.125-.383.202-.79.232-1.22.21-.686.395-1.318.557-1.896.16-.58.276-1.27.348-2.073-.687.118-1.237.23-1.652.338-.416.108-.714.21-.894.31-.363-.02-.65-.1-.86-.236a1.715 1.715 0 0 1-.51-.5 3.23 3.23 0 0 1-.336-.676 9.62 9.62 0 0 0-.336-.794c.07-.176.084-.436.043-.78-.04-.342-.153-.592-.335-.75.143-.038.25-.17.317-.395.068-.225.074-.396.018-.514.302-.098.623-.162.962-.19l1.003-.09c.33-.03.646-.068.948-.117.302-.05.558-.153.767-.31.926-.04 1.893-.078 2.9-.117a96 96 0 0 0 2.786-.147c.326.118.7.176 1.12.176.418 0 .84.03 1.262.09.423.057.806.185 1.15.38.342.197.592.54.75 1.03.27.04.478.117.62.235.142.117.237.26.284.426.047.167.072.353.076.56.004.204.013.405.025.6-.275.236-.63.427-1.063.574a9.357 9.357 0 0 1-1.433.353c-.52.088-1.064.147-1.633.177-.57.03-1.125.054-1.667.073a19.343 19.343 0 0 1-.395 2.278c-.2.872-.41 1.725-.626 2.558-.22.833-.412 1.578-.574 2.234-.165.657-.236 1.083-.215 1.28a66.821 66.821 0 0 0-.769 2.027c-.1.275-.2.544-.3.81-.102.263-.226.562-.374.895h1.906c.04.216.124.363.256.44.13.08.272.148.422.207.15.058.286.13.41.22.12.088.183.23.184.426.357.098.583.245.678.44.096.197.12.407.075.633-.046.224-.14.454-.28.69-.14.235-.275.44-.406.617-.168-.04-.328.005-.48.132-.15.127-.29.27-.423.425a6.397 6.397 0 0 0-1.61-.03c-.527.06-1.017.11-1.47.148-.094.02-.132.074-.114.162.018.088 0 .152-.058.19a4.642 4.642 0 0 0-1.793-.234c-.612.04-1.235.133-1.87.28-.632.147-1.28.304-1.943.47a9.38 9.38 0 0 1-2.016.28 1.979 1.979 0 0 1-.622-.677 4.55 4.55 0 0 1-.378-.88zm15.86-5.027a13.093 13.093 0 0 1-.438-2.25 20.87 20.87 0 0 1-.13-2.22 8.08 8.08 0 0 1 .56-1.454c.223-.44.473-.86.75-1.263.276-.402.565-.784.87-1.146.3-.362.597-.73.887-1.102.11 0 .21.03.305.088.06-.215.16-.4.297-.558.136-.157.283-.3.438-.426l.467-.383a1.59 1.59 0 0 0 .38-.456 4.135 4.135 0 0 0 1.173-.5c.337-.216.66-.45.964-.706.305-.254.62-.49.945-.705a3.844 3.844 0 0 1 1.144-.5c.144-.196.332-.362.56-.5.23-.137.46-.264.69-.382.232-.116.452-.244.662-.38.21-.138.375-.324.493-.56.125.157.282.21.473.162.19-.05.364-.103.52-.16.104-.02.195 0 .272.057.078.058.152.122.222.19a.61.61 0 0 0 .175.133c.046.02.09-.04.128-.177.145.02.193.09.143.206-.05.118-.082.196-.096.235a.496.496 0 0 1 .454.103c.13.108.32.18.575.22.1.1.136.177.106.236a.779.779 0 0 0-.048.294c.67.215 1.118.553 1.348 1.014.23.46.297.94.203 1.44-.095.5-.317.96-.668 1.382-.352.42-.76.7-1.22.838-.552.157-1.063.313-1.534.47-.47.157-.922.333-1.355.53a7.298 7.298 0 0 0-1.213.69c-.376.265-.7.574-.972.926a5.002 5.002 0 0 0-1.354.647 8.58 8.58 0 0 0-1.112.91 17.8 17.8 0 0 0-.99 1.045c-.317.362-.636.72-.955 1.073.01.333-.036.588-.14.764-.106.176-.22.352-.345.528.05.373.137.69.266.956.13.264.264.534.402.808 1.507.47 3.098.76 4.774.867a96.67 96.67 0 0 0 4.983.19c.178.236.38.456.603.662.225.206.43.416.617.632.187.216.338.465.453.75.114.284.15.622.108 1.014-.307.333-.645.65-1.012.955-.367.304-.736.603-1.106.897-.17.02-.372.02-.608 0s-.48-.03-.736-.03c-.254 0-.51.015-.763.045s-.493.093-.717.19c-1.19-.04-2.408-.19-3.657-.455a28.137 28.137 0 0 1-3.46-.955 9.667 9.667 0 0 0-.657-.72c-.23-.226-.532-.388-.91-.486a5.26 5.26 0 0 1-1.36-1.618 10.082 10.082 0 0 1-.848-2.057z"/><path d="M28.618 57.48c-.35-.22-.68-.522-.987-.906a5.692 5.692 0 0 1-.755-1.228 4.674 4.674 0 0 1-.384-1.316 2.193 2.193 0 0 1 .152-1.205c-.002-.014.066-.18.203-.503l.53-1.242c.218-.508.464-1.08.74-1.714.274-.64.55-1.274.826-1.904.276-.635.544-1.22.806-1.756.26-.54.494-.967.702-1.28.14-.228.27-.448.384-.66.115-.21.227-.408.337-.59l.474-.837a4.605 4.605 0 0 1 1.163-1.366c.245-.197.55-.39.916-.576.24.023.453.056.637.1.184.044.352.11.505.2l.135.296a.332.332 0 0 0 .22.174c.092.02.167.023.224.01.256-.006.478-.002.668.013.19.016.392.01.604-.018.09.075.177.152.26.23.08.078.165.147.254.208.453.368.837.738 1.152 1.107.316.37.388.828.216 1.366l.07.25c.113.09.177.184.19.277.016.093.017.227.006.403 0 .127.007.264.02.413.014.148.063.302.148.464l.232.155c.33.08.638.098.927.056a2.453 2.453 0 0 0 1.01-.365c.286-.188.553-.374.8-.56a5.19 5.19 0 0 1 .544-.402c.17-.11.34-.194.508-.253a66.505 66.505 0 0 1 1.905-2.002 24.213 24.213 0 0 0 1.766-1.933c.562-.693.966-1.507 1.212-2.442.19-.165.42-.276.688-.333.267-.058.542-.068.824-.03.283.04.568.09.855.157.062.023.12.04.17.046a.93.93 0 0 1 .17.046c.03.193.145.35.342.474.107.05.18.08.222.09l.123.03c.166.06.308.112.425.162.116.05.213.132.29.245.25.448.596.767 1.042.96-.007.205.033.396.12.573.088.178.185.35.29.516.05.064.09.127.12.186.028.06.07.13.122.215l-.644.055.18.576c.106.296.136.64.09 1.032-.046.392-.12.704-.22.938.123.53.21.95.26 1.262.05.312.076.605.08.877.003.27-.02.533-.068.783-.05.25-.12.517-.214.798.292 1.34.318 2.59.075 3.738a27.94 27.94 0 0 1-.872 3.188c-.04.124-.08.24-.123.347a2.058 2.058 0 0 0-.098.32c-.207.06-.394.128-.56.204-.166.076-.32.16-.464.25-.197.13-.398.235-.602.32-.203.084-.423.13-.66.137-1.037-.558-1.684-1.552-1.94-2.99-.26-1.436-.194-3.3.188-5.62.123-.1.16-.235.114-.402l-.044-.28-.295.012c-.097.012-.182.03-.257.058-.075.026-.12.11-.138.248-.56.46-1.17.935-1.835 1.422-.664.48-1.36.926-2.085 1.336-.726.404-1.477.75-2.25 1.036a8.991 8.991 0 0 1-2.305.522c-1.95.17-3.54-.455-4.767-1.847l-.323-.363-.237.38c-.046.08-.126.233-.24.458-.11.225-.22.48-.322.77a6.518 6.518 0 0 0-.248.873c-.062.295-.057.548.016.76-.21.175-.41.37-.604.586-.193.215-.32.452-.377.712a.255.255 0 0 0 .003.203c.03.06.07.126.12.194-.004.1-.032.173-.084.218a1.855 1.855 0 0 1-.187.14 7.93 7.93 0 0 0-.26.236c-.085.082-.16.175-.222.276-.025.086-.04.175-.046.266a7.043 7.043 0 0 1-.02.243c.023.153.01.26-.04.317-.15.3-.285.546-.403.737a1.758 1.758 0 0 1-.36.438c-.123.1-.256.17-.398.207-.142.038-.312.06-.51.065-.196.005-.504-.008-.924-.037zm30.643 2.052a6.23 6.23 0 0 1-1.93-.845 7.39 7.39 0 0 1-1.576-1.383 9.711 9.711 0 0 1-1.186-1.717c-.352-1.28-.474-2.456-.367-3.537a11.93 11.93 0 0 1 .71-3.08c.365-.977.806-1.914 1.322-2.813a291.66 291.66 0 0 0 1.486-2.652c.136.037.24.017.314-.057a.959.959 0 0 0 .184-.28c.05-.113.108-.226.176-.342a.717.717 0 0 1 .256-.265c.047-.194.12-.363.222-.507.1-.144.21-.286.332-.424.12-.14.23-.28.33-.427.102-.145.185-.32.25-.52.175-.08.324-.183.445-.314a3.47 3.47 0 0 0 .333-.42c.1-.147.206-.286.32-.416.11-.13.253-.246.426-.347l-.058-.403c.37-.296.626-.59.77-.88.146-.292.317-.666.513-1.123a5.21 5.21 0 0 1 .47-.142c.118-.028.3-.093.548-.195.11-.4.226-.7.346-.906.12-.206.3-.45.54-.73.296.104.6.135.91.09.313-.042.617.056.914.298.055.256.147.44.276.556.13.117.266.22.41.31.143.09.288.186.434.288.145.102.254.27.325.502.09-.02.146-.055.167-.105.02-.05.078-.075.172-.073.06.168.118.302.17.404.052.102.107.192.165.27a2.792 2.792 0 0 1 .36.638 9.826 9.826 0 0 0-.125.894c-.03.312-.146.545-.348.7.025.174.093.257.204.246.11-.01.186.06.227.21a.883.883 0 0 1-.01.51c.658.94 1.28 1.947 1.865 3.02a32.844 32.844 0 0 0 1.906 3.092c.01.32.067.628.175.923.11.295.235.584.38.865.142.28.28.564.416.847.134.284.24.57.32.862.093.38.153.794.18 1.24.026.445.014.876-.04 1.293-.05.416-.144.806-.28 1.17-.134.362-.31.64-.524.837-.232.468-.55.854-.956 1.16a5.96 5.96 0 0 0-1.085 1.044c-.234.19-.494.33-.78.42-.287.09-.582.186-.886.287-.217.184-.48.364-.793.54-.31.175-.634.333-.97.475a7.14 7.14 0 0 1-1.017.34 2.623 2.623 0 0 1-.944.08 8.177 8.177 0 0 1-1.877.625c-.62.12-1.372.092-2.258-.084-.803.147-1.554.13-2.254-.048zm.514-9.788c-.203.38-.4.763-.593 1.15a6.808 6.808 0 0 0-.466 1.207c-.12.422-.145.904-.078 1.45.436.29.924.45 1.464.478.54.028 1.086 0 1.637-.09.552-.088 1.1-.2 1.642-.34a8.592 8.592 0 0 1 1.478-.26c-.028-.178.035-.273.19-.285a5.206 5.206 0 0 0 2.138-.887c.63-.455 1.286-.92 1.97-1.4.057-.257.148-.485.272-.686.124-.2.168-.48.13-.832a2.452 2.452 0 0 1-.26-.445 2.71 2.71 0 0 1-.13-.553 15.085 15.085 0 0 1-1.674-2.26 17.612 17.612 0 0 0-1.645-2.27.815.815 0 0 1-.18.337c-.1.118-.226.117-.382-.004-.025.21-.09.36-.192.446a.73.73 0 0 1-.37.162c-.142.02-.29.013-.44-.026a1.493 1.493 0 0 1-.424-.18 67.52 67.52 0 0 1-1.733 1.883 10.017 10.017 0 0 0-1.51 2.005c-.087.07-.14.095-.163.078-.023-.017-.088 0-.197.053-.12.464-.283.886-.486 1.268zM77.35 59.798c-.107-.245-.297-.44-.572-.586-.09-.335-.203-.72-.338-1.153l-.408-1.334c-.138-.454-.257-.91-.356-1.367a5.94 5.94 0 0 1-.15-1.263c.008-.205.04-.4.1-.59.058-.186.118-.37.178-.545.06-.177.1-.358.12-.543a1.182 1.182 0 0 0-.067-.543c.11-.034.17-.115.18-.242.01-.127.095-.177.255-.148.058-.512.13-.993.217-1.44.085-.45.183-.89.292-1.322.11-.432.22-.872.337-1.32.115-.447.208-.946.28-1.496a3.51 3.51 0 0 1-.88-1.076c-.207-.4-.38-.808-.524-1.228-.142-.42-.266-.846-.37-1.283a8.576 8.576 0 0 0-.435-1.302c.165-.452.387-.84.668-1.166.28-.328.6-.617.96-.868a7.43 7.43 0 0 1 1.193-.675c.437-.198.9-.42 1.385-.67a28.624 28.624 0 0 1 4.308-2.317 51.62 51.62 0 0 1 2.058-.837 34.196 34.196 0 0 0 2.46-1.077c.03.07.068.1.115.09l.183-.04c.084.162.2.227.35.193a1.245 1.245 0 0 0-.045-.205.932.932 0 0 1-.04-.167c.037-.007.09-.006.16.004s.13.023.18.037c.052.016.093 0 .125-.046.032-.047.028-.13-.01-.253.307.48.666.854 1.076 1.118.41.267.85.482 1.324.646a3.1 3.1 0 0 1 .09.497c.007.106.008.205.003.3-.004.092.002.197.02.312.018.116.062.272.13.47-.194.752-.456 1.357-.784 1.813-.33.455-.695.823-1.098 1.106-.404.282-.84.517-1.306.704-.467.187-.943.38-1.427.582-.484.2-.967.444-1.448.73a6.04 6.04 0 0 0-1.37 1.135.791.791 0 0 0-.427-.02c-.12.032-.244.084-.37.154-.125.07-.264.144-.418.22a1.231 1.231 0 0 1-.583.096c-.126.192-.283.34-.472.445-.188.104-.38.21-.578.314.135.245.217.5.248.76.03.264.09.486.175.667.813-.026 1.695-.165 2.648-.42.953-.257 1.89-.482 2.813-.674.038.12.042.21.012.264-.03.055-.036.145-.017.268.193.123.384.284.57.485.186.2.377.396.57.584.195.19.39.34.58.454a.806.806 0 0 0 .627.087c.134.237.24.492.322.763.08.27.096.563.047.876-.332.373-.653.748-.964 1.128-.31.377-.642.724-.992 1.04-.35.314-.742.58-1.175.8-.433.22-.92.345-1.46.377l-.243.024c-.067.007-.155-.033-.266-.12-.173.142-.42.21-.74.207-.322-.002-.58.067-.77.21a2.304 2.304 0 0 0-.962-.082 2.36 2.36 0 0 1-.96-.08c-.25.647-.478 1.318-.682 2.013-.205.693-.366 1.42-.482 2.18.81.082 1.472.092 1.988.03.515-.063.998-.147 1.45-.253.45-.106.914-.214 1.393-.324.478-.11 1.075-.18 1.79-.212.435-.33.956-.576 1.563-.737a7.87 7.87 0 0 0 1.665-.648c.204.058.39.188.556.39.167.202.33.404.488.608.157.204.315.376.473.517.158.14.34.18.543.113.115.12.2.267.257.442.056.175.11.338.163.488.052.15.114.267.185.352.072.085.183.11.333.075-.214 1.01-.507 1.792-.88 2.344-.372.548-.82.977-1.347 1.287a6.474 6.474 0 0 1-1.82.703c-.685.16-1.448.35-2.29.572a.908.908 0 0 1-.54 0 1.206 1.206 0 0 0-.463-.077c-.524.137-1.15.276-1.876.417-.727.14-1.47.208-2.23.206-.758 0-1.5-.096-2.23-.28a4.343 4.343 0 0 1-1.91-1.033 1.91 1.91 0 0 1-.43-.63z"/></g></g></svg>