<svg width="192" height="192" viewBox="0 0 192 192" xmlns="http://www.w3.org/2000/svg" xmlns:xlink="http://www.w3.org/1999/xlink"><title>muse</title><defs><ellipse id="a" cx="49" cy="77.5" rx="49" ry="77.5"/></defs><g fill="none" fill-rule="evenodd"><path fill-opacity=".01" fill="#757575" d="M0 0h192v192H0z"/><g transform="translate(47 19)"><mask id="b" fill="#fff"><use xlink:href="#a"/></mask><use fill="#C95F45" xlink:href="#a"/><path d="M37.846 87.037C52.622 74.688 64.41 56.972 65.679 53.975c1.27-2.997 2.664-8.424 3.87-11.08 1.206-2.657 3.133-9.873 5.417-9.254 2.284.619-2.124 11.918-3.546 14.557-1.422 2.64-5.424 9.728-5.582 10.395-.159.666-4.398 14.006-6.2 19.593-1.804 5.586-5.25 16.068-5.25 16.068s9.318-10.841 12.524-14.799c3.207-3.957 8.678-10.642 8.678-10.642s6.372-10.437 8.841-14.466c2.469-4.029 4.566-6.227 6.096-8.144 1.53-1.917 2.657-1.922 2.657-1.922l.888 2.924s-7.844 11.768-8.743 12.767c-.898.999-7.589 12.892-9.293 16.188-1.704 3.295-8.404 14.38-8.404 23.613 0 9.232 5.127 8.495 6.766 8.495 1.638 0 5.376-.556 9.31-2.768 3.933-2.212 5.166-3.064 5.993-2.423.826.64-1.534 3.794-4.229 4.833-2.694 1.04-5.626 2.063-10.775 2.063-5.148 0-10.264-2.618-9.562-11.093.703-8.475 1.06-11.15 1.777-13.096a960.51 960.51 0 0 0 2.24-6.21s-8.125 10.95-9.956 12.815c-1.83 1.865-4.662 4.46-5.795 6.74-1.134 2.28-1.783 5.686-2.695 5.686-.911 0-2.233 1.111-2.657.089-.423-1.023.984-2.7 1.82-4.797.837-2.096 2.753-5.341 2.753-5.341s4.492-13.712 5.222-16.16c.731-2.446 3.34-12.12 3.34-12.12S49.201 82.759 44.266 87.13c-4.935 4.37-16.94 13.72-25.338 16.544-8.397 2.823-8.448 3.624-12.072 3.624-3.624 0-2.994.108-2.994.108l-1.085-2.79s1.528.302 6.053-.618c4.525-.92 14.24-4.61 29.016-16.96zM16.459 41.758c7.509 4.284 11.956 12.709 11.956 12.709s7.802-.428 11.09 5.6c3.288 6.03 1.422 12.54.71 14.219-.71 1.68-2.429 3.732-3.286 3.158-.857-.574 2.626-4.765 2.626-9.876s-1.952-8.356-3.524-9.306c-1.572-.95-3.258-1.962-4.166-1.962-.909 0-2.524-.279-2.524-.279s2.884 5.662 2.03 9.894c-.852 4.231-2.1 7.32-6.99 7.32-4.89 0-7.514-2.83-7.142-8.902.371-6.07 2.456-6.731 4.02-7.858 1.564-1.128 4.795-1.93 4.795-1.93S21.981 47.836 15.5 44.374c-6.481-3.463-9.887-3.196-9.887-3.196l.637-2.655s2.7-1.049 10.209 3.235zm4.256 18.14c-2.688 3.62-3.519 10.21 1.74 11.554 5.262 1.344 7.244-3.118 7.048-7.476-.176-3.924-2.296-7.729-2.296-7.729s-4.07.39-6.492 3.65zm-3.094 19.917c.396 13.265-9.494 19.047-15.498 20.377-.363.437 0-1.708 0-1.708s14.256-3.168 13.754-17.84C14.287 66.171.287 68.036.287 68.036l.358-2.108s16.581.621 16.976 13.886z" fill="#E9E6C9" mask="url(#b)"/></g><path d="M77.27 151.085c0 .51-.156.947-.47 1.313-.312.366-.745.61-1.297.733a6.967 6.967 0 0 1-1.236.173c-.387.016-1.524.025-3.412.025a4.7 4.7 0 0 1-.47-.013c-.049-.008-.073-.037-.073-.086 0-.074.134-.111.401-.111.268 0 .435-.039.5-.117.067-.078.1-.27.1-.573l-.013-7.053c0-.238-.19-.362-.568-.37-.289-.008-.433-.045-.433-.11 0-.075.09-.112.272-.112.173.017.342.025.507.025h2.966c1.904 0 2.856.65 2.856 1.948 0 1.077-.709 1.743-2.126 1.997l-.025.05c.832.172 1.41.39 1.73.653.528.436.792.978.792 1.628zm-2.2-4.279c0-1.192-.37-1.787-1.112-1.787-.264 0-.44.012-.532.037-.18.057-.271.184-.271.382v3.255c.733 0 1.236-.128 1.507-.382.272-.255.408-.757.408-1.505zm.223 4.217c0-1.159-.334-1.833-1.001-2.022-.264-.074-.643-.111-1.137-.111l.024.715c0 .206-.008.497-.024.876-.009.189-.013.542-.013 1.06 0 .888.025 1.36.074 1.418.066.09.252.135.557.135 1.013 0 1.52-.69 1.52-2.071zm11.232 1.8c0 .46-.3.69-.902.69-.759 0-1.364-.238-1.817-.715-.355-.37-.557-.764-.606-1.183l-.124-1.011c-.082-.641-.232-1.09-.45-1.344-.22-.255-.571-.378-1.058-.37v2.799c0 .65.005.999.013 1.048 0 .14.057.236.173.29.115.053.334.08.655.08.198 0 .297.037.297.11 0 .066-.05.1-.149.1l-1.199-.013h-.197a7.614 7.614 0 0 1-.42.012h-.89c-.083 0-.178-.004-.285-.012h-.173l-.569.012c-.115 0-.173-.033-.173-.098 0-.074.17-.12.507-.136.28-.016.445-.082.495-.197.024-.058.037-.23.037-.518v-6.35c0-.427-.009-.68-.025-.758-.017-.078-.07-.138-.16-.179-.116-.05-.302-.074-.557-.074-.181 0-.272-.037-.272-.11 0-.058.037-.093.111-.106a5.3 5.3 0 0 1 .594-.018h.222c.148.008.293.012.433.012h.408l.26-.012h1.161c1.154 0 1.94.09 2.36.271.33.14.594.354.792.641.198.288.297.604.297.95 0 .789-.412 1.372-1.236 1.75-.363.165-.899.288-1.607.37l-.013.074c.899.058 1.55.294 1.953.71.404.414.647 1.086.73 2.015.065.74.168 1.202.309 1.387.14.185.284.278.432.278.124 0 .186-.033.186-.099 0-.033-.048-.078-.143-.136a.273.273 0 0 1-.142-.246c0-.222.124-.333.371-.333s.37.14.37.42zm-3.127-6.226c0-1.06-.42-1.59-1.261-1.59-.272 0-.44.09-.507.27-.041.116-.062.563-.062 1.344v2.047c.643.008 1.109-.152 1.397-.48.289-.33.433-.86.433-1.591zm7.796 6.62c0 .066-.054.1-.161.1a.981.981 0 0 1-.16-.013 26.098 26.098 0 0 0-1.274-.037c-.37 0-.915.012-1.631.037a17.07 17.07 0 0 1-.532.012c-.124 0-.185-.037-.185-.11 0-.042.022-.066.068-.075.045-.008.204-.016.475-.024.256-.05.404-.126.445-.228.042-.103.062-.434.062-.993V145.5a10.447 10.447 0 0 0-.012-.21c0-.205-.206-.307-.618-.307-.23 0-.346-.03-.346-.087 0-.057.016-.09.05-.098.032-.009.14-.013.32-.013a45.98 45.98 0 0 0 1.421.025h.631c.132 0 .32-.006.563-.019.243-.012.414-.018.513-.018h.123c.108 0 .161.033.161.099 0 .049-.018.08-.056.092a2.264 2.264 0 0 1-.377.03c-.255.017-.412.07-.47.161l-.036.234v6.967c0 .353.039.563.117.628.078.066.344.111.797.136.075.008.112.041.112.099zm9.34-4.228c0 .937-.214 1.746-.642 2.429-.445.715-1.092 1.237-1.94 1.565-.578.222-1.439.333-2.584.333l-.272-.012a15.534 15.534 0 0 0-.717-.012h-.445l-.803.012-.78.012c-.123 0-.184-.033-.184-.098 0-.083.115-.12.346-.111.354.008.568-.054.642-.185.033-.058.05-.308.05-.752v-6.276c0-.362-.025-.584-.074-.666-.083-.148-.293-.218-.63-.21-.182.009-.273-.032-.273-.123 0-.074.058-.11.173-.11h.223c.494 0 .972.003 1.434.012.659.008 1.17.012 1.532.012 1.5 0 2.65.308 3.449.925.997.772 1.495 1.857 1.495 3.255zm-2.138 0c0-1.357-.202-2.35-.606-2.978-.403-.629-1.038-.943-1.903-.943-.313 0-.52.033-.618.098-.132.083-.198.276-.198.58v6.313c0 .542.033.842.1.9.098.09.316.135.654.135 1.714 0 2.571-1.368 2.571-4.105zm11.739 4.192c0 .065-.03.104-.093.117-.062.012-.22.018-.476.018-.066 0-.25-.004-.556-.012-.61-.016-1.03-.025-1.26-.025-.273 0-.511.004-.717.013-.413.016-.693.024-.841.024-.222 0-.334-.04-.334-.123 0-.082.235-.127.705-.136.115 0 .202-.008.26-.024.131-.017.197-.066.197-.148 0-.041-.05-.214-.148-.518l-.26-.801c-.05-.181-.156-.514-.321-1h-.223l-.964-.012a16.665 16.665 0 0 0-1.1.013c-.074.164-.214.534-.42 1.11l-.272.8a.993.993 0 0 0-.062.297c0 .14.09.23.272.271.041.008.243.025.606.05.115.008.173.045.173.11 0 .074-.074.111-.223.111l-2.04-.012a.981.981 0 0 1-.16.012c-.115 0-.173-.04-.173-.123 0-.05.128-.082.383-.099.33-.016.54-.078.63-.185.091-.106.24-.452.446-1.035.156-.411.383-1.02.68-1.825l1.495-4.106c.074-.18.177-.464.31-.85.09-.28.16-.42.21-.42.049 0 .14.19.271.567.165.485.89 2.4 2.176 5.746.164.427.33.863.494 1.307.14.378.28.608.42.69.107.066.363.095.767.087.099 0 .148.037.148.11zm-3.93-2.885a11.265 11.265 0 0 0-.087-.235 73.27 73.27 0 0 0-.717-2.01 24.926 24.926 0 0 1-.173-.468l-.074-.222c-.149.354-.33.843-.544 1.467a49.643 49.643 0 0 1-.52 1.468c.075 0 .166-.005.273-.013h.964c.19 0 .482.004.877.013zm11.479.924c0 .156-.005.288-.013.395a7.16 7.16 0 0 0-.037.875l.013.876c-1.055-.041-2.963-.062-5.723-.062h-.52c-.362 0-.543-.033-.543-.099 0-.065.057-.098.173-.098.412-.009.675-.066.79-.173.075-.066.112-.263.112-.592l-.012-6.682c0-.28-.025-.452-.074-.518-.1-.123-.252-.181-.458-.173l-.309.013c-.09 0-.136-.033-.136-.1 0-.065.058-.098.173-.098.066 0 .132.004.198.013h3.14a.696.696 0 0 1 .136-.013c.082 0 .123.033.123.099 0 .074-.107.11-.321.11-.305 0-.484.038-.538.112-.053.074-.08.398-.08.974v2.934c0 .6.016 1.944.05 4.032.156.008.333.012.53.012.866 0 1.463-.032 1.793-.098.52-.107.873-.37 1.063-.79.099-.213.19-.554.272-1.023.025-.131.062-.197.111-.197.058 0 .087.09.087.271zm3.457 1.32a.85.85 0 0 1-.247.628.855.855 0 0 1-.63.247.885.885 0 0 1-.643-.253.835.835 0 0 1-.26-.622.87.87 0 0 1 .26-.642.874.874 0 0 1 .642-.259c.24 0 .445.087.618.26a.87.87 0 0 1 .26.64z" fill="#393E50"/></g></svg>