<svg width="120" height="76" viewBox="0 0 120 76" xmlns="http://www.w3.org/2000/svg"><title>Pump</title><g fill="none" fill-rule="evenodd"><path d="M91.98 43.67H76.75V11.13H92.7c14.386 0 20.13 7.456 20.13 16.216 0 9.11-5.634 16.325-20.85 16.325m.953-37.74H70.407v69.558a34.73 34.73 0 0 1 3.227-.145c1.076 0 2.115.048 3.117.133V48.883h15.584c21.218 0 27.33-11.245 27.33-21.658 0-11.595-7.555-21.296-26.73-21.296" fill="#393E50"/><path d="M73.116 6.084h-2.518v.87c-.904-1.087-1.784-1.86-2.603-2.366-1.063-.664-1.943-.893-2.8-.893-.78 0-1.612.205-2.578.664-.94.445-1.98 1.158-3.03 2.087-2.116 1.87-4.303 4.584-6.503 7.758-4.412 6.358-8.86 14.563-13.335 21.73-2.983 4.79-5.965 9.11-9.045 12.186-1.76 1.763-3.544 3.126-5.537 3.923-1.063.422-2.2.676-3.385.676-1.614 0-3.203-.484-4.608-1.377-1.43-.893-2.738-2.196-4.02-3.934l2.443-.942c1.186 1.605 2.335 2.703 3.386 3.355 1.064.663 1.944.88 2.8.893.78 0 1.612-.206 2.578-.664.94-.458 1.98-1.17 3.03-2.1 2.115-1.858 4.303-4.573 6.503-7.746 4.412-6.358 8.86-14.563 13.334-21.742 2.98-4.778 5.964-9.11 9.044-12.174 1.76-1.762 3.545-3.125 5.536-3.92 1.064-.424 2.2-.677 3.386-.677 1.613-.013 3.202.482 4.607 1.375 1.174.724 2.25 1.725 3.313 3.016" fill="#393E50"/><path d="M73.116 6.084h-2.518v.87c-.904-1.087-1.784-1.86-2.603-2.366-1.063-.664-1.943-.893-2.8-.893-.78 0-1.612.205-2.578.664-.94.445-1.98 1.158-3.03 2.087-2.116 1.87-4.303 4.584-6.503 7.758-4.412 6.358-8.86 14.563-13.335 21.73-2.983 4.79-5.965 9.11-9.045 12.186-1.76 1.763-3.544 3.126-5.537 3.923-1.063.422-2.2.676-3.385.676-1.614 0-3.203-.484-4.608-1.377-1.43-.893-2.738-2.196-4.02-3.934l2.443-.942c1.186 1.605 2.335 2.703 3.386 3.355 1.064.663 1.944.88 2.8.893.78 0 1.612-.206 2.578-.664.94-.458 1.98-1.17 3.03-2.1 2.115-1.858 4.303-4.573 6.503-7.746 4.412-6.358 8.86-14.563 13.334-21.742 2.98-4.778 5.964-9.11 9.044-12.174 1.76-1.762 3.545-3.125 5.536-3.92 1.064-.424 2.2-.677 3.386-.677 1.613-.013 3.202.482 4.607 1.375 1.174.724 2.25 1.725 3.313 3.016z" stroke="#393E50" stroke-width="2.952"/><path d="M14.608 46.07c-2.48 2.11-7.028.917-10.157-2.667C1.324 39.82.785 35.21 3.254 33.1c2.482-2.112 7.028-.918 10.157 2.666 3.13 3.583 3.667 8.193 1.198 10.304z" stroke="#393E50" stroke-width="2.952" fill="#C95F45"/></g></svg>