<svg width="205" height="205" viewBox="0 0 205 205" xmlns="http://www.w3.org/2000/svg"><title>pbh</title><g fill="none" fill-rule="evenodd"><path fill-opacity=".01" fill="#D8D8D8" d="M0 0h205v205H0z"/><g transform="translate(35 35)"><ellipse fill="#55647F" cx="10.462" cy="87.179" rx="10.462" ry="10.462"/><ellipse fill="#393E50" cx="10.462" cy="125.538" rx="10.462" ry="10.462"/><ellipse fill="#55647F" cx="48.821" cy="87.179" rx="10.462" ry="10.462"/><ellipse fill="#393E50" cx="48.821" cy="125.538" rx="10.462" ry="10.462"/><circle fill="#55647F" cx="87.179" cy="87.179" r="10.462"/><circle fill="#393E50" cx="87.179" cy="125.538" r="10.462"/><circle fill="#55647F" cx="125.538" cy="87.179" r="10.462"/><circle fill="#393E50" cx="125.538" cy="125.538" r="10.462"/><circle fill="#C95F45" cx="10.462" cy="48.821" r="10.462"/><circle fill="#C95F45" cx="48.821" cy="48.821" r="10.462"/><ellipse fill="#C95F45" cx="87.179" cy="48.821" rx="10.462" ry="10.462"/><ellipse fill="#C95F45" cx="125.538" cy="48.821" rx="10.462" ry="10.462"/><circle fill="#C95F45" cx="10.462" cy="10.462" r="10.462"/><circle fill="#C95F45" cx="48.821" cy="10.462" r="10.462"/><ellipse fill="#C95F45" cx="87.179" cy="10.462" rx="10.462" ry="10.462"/><ellipse fill="#C95F45" cx="125.538" cy="10.462" rx="10.462" ry="10.462"/></g></g></svg>