<svg width="100" height="90" viewBox="0 0 100 90" xmlns="http://www.w3.org/2000/svg"><title>React Logo</title><g transform="translate(0 .5)" fill="none" fill-rule="evenodd"><ellipse fill="#55647F" cx="50.538" cy="44.216" rx="8.065" ry="8.088"/><path d="M25.268 87.817c10.229 5.923 28.562-9.375 42.276-33.198C81.258 30.796 85.3 7.223 75.072 1.3c-10.23-5.922-28.563 9.375-42.277 33.199C19.081 58.32 15.04 81.894 25.268 87.817zm2.688-4.67c-2.776-1.607-3.85-7.103-2.434-15.355 1.528-8.913 5.747-19.858 11.93-30.598 6.182-10.74 13.523-19.877 20.455-25.661 6.418-5.355 11.7-7.17 14.476-5.563 2.776 1.607 3.85 7.103 2.435 15.355-1.529 8.913-5.747 19.857-11.93 30.598-6.183 10.74-13.524 19.877-20.456 25.66-6.418 5.356-11.7 7.171-14.476 5.564z" fill="#C95F45"/><path d="M72.383 83.147c-2.775 1.607-8.058-.208-14.476-5.563-6.932-5.784-14.273-14.92-20.456-25.661-6.182-10.74-10.4-21.685-11.93-30.598-1.414-8.252-.34-13.748 2.435-15.355 2.776-1.608 8.058.208 14.476 5.563 6.932 5.784 14.273 14.92 20.456 25.66 6.183 10.741 10.401 21.686 11.93 30.599 1.415 8.252.341 13.748-2.435 15.355zm2.689 4.67c10.228-5.923 6.186-29.496-7.528-53.32C53.83 10.675 35.497-4.622 25.268 1.3c-10.229 5.923-6.187 29.496 7.527 53.32C46.51 78.441 64.843 93.74 75.072 87.816z" fill="#C95F45"/><path d="M5.742 44.558c0-3.214 4.21-6.895 12.042-9.792 8.46-3.129 20.02-4.937 32.386-4.937 12.365 0 23.925 1.808 32.385 4.937 7.833 2.897 12.042 6.578 12.042 9.792 0 3.215-4.209 6.895-12.042 9.792-8.46 3.13-20.02 4.938-32.385 4.938-12.366 0-23.926-1.809-32.386-4.938-7.833-2.897-12.042-6.577-12.042-9.792zm-5.376 0c0 11.846 22.376 20.122 49.804 20.122s49.803-8.276 49.803-20.122c0-11.845-22.375-20.121-49.803-20.121-27.428 0-49.804 8.276-49.804 20.121z" fill="#C95F45"/></g></svg>