<svg width="100" height="100" viewBox="0 0 100 100" xmlns="http://www.w3.org/2000/svg"><title>Group 3</title><g fill="none" fill-rule="evenodd"><path d="M50.32.539c27.41 0 49.64 22.201 49.64 49.575 0 27.375-22.23 49.576-49.64 49.576S.68 77.489.68 50.114C.68 22.74 22.91.54 50.32.54z" fill="#C95F45"/><path d="M32.056 88.65c-14.434-6.837-24.42-21.524-24.42-38.535a42.414 42.414 0 0 1 3.836-17.678L32.057 88.65zm32.556 1.639a42.605 42.605 0 0 1-14.29 2.453c-4.32 0-8.486-.643-12.415-1.833l13.15-37.634L64.61 90.29v-.002zm23.25-60.473a42.379 42.379 0 0 1 5.143 20.297c0 16.125-8.971 30.16-22.198 37.404L84.12 49.862c2.063-5.828 3.977-13.704 3.743-20.046zm-37.54-22.33c11.134 0 21.272 4.262 28.872 11.238-3.725-.1-7.442 2.112-7.596 7.176-.313 10.237 12.257 12.417 5.484 33.008L71.479 75.94 56.22 31.05c-.236-.695.039-1.09.894-1.09h4.314a.418.418 0 0 0 .407-.426v-2.552c0-.234-.183-.435-.407-.425-8.17.357-16.291.36-24.364 0-.225-.01-.407.192-.407.426v2.552c0 .234.183.425.407.425h4.338c.965 0 1.235.321 1.462.943l6.27 17.124-9.431 28.441-15.504-45.604c-.192-.572.04-.904.592-.904h4.943a.418.418 0 0 0 .407-.425v-2.552c0-.234-.184-.437-.407-.425-5.186.275-10.391.33-15.24.38C22.103 15.232 35.306 7.485 50.319 7.485l.002.001z" fill="#E9E6C9"/><path d="M50.394 99.623c27.347 0 49.517-22.19 49.517-49.562C99.911 22.69 77.741.5 50.394.5 23.046.5.876 22.69.876 50.061c0 27.372 22.17 49.562 49.518 49.562zm0-7.018c-23.476 0-42.506-19.047-42.506-42.544 0-23.496 19.03-42.543 42.506-42.543C73.869 7.518 92.9 26.565 92.9 50.06c0 23.497-19.03 42.544-42.506 42.544z" fill="#393E50"/></g></svg>